<svg width="60" height="60" viewBox="0 0 60 60" fill="none" xmlns="http://www.w3.org/2000/svg">
<circle cx="30" cy="30" r="30" fill="#666666"/>
<path d="M30.0765 17.1763C30.3109 16.9419 30.6915 16.9419 30.9259 17.1763L34.5259 20.7763C34.7602 21.0106 34.7602 21.3913 34.5259 21.6256C34.2915 21.86 33.9109 21.86 33.6765 21.6256L30.5002 18.4494L27.324 21.6238C27.0896 21.8581 26.709 21.8581 26.4746 21.6238C26.2402 21.3894 26.2402 21.0088 26.4746 20.7744L30.0746 17.1744L30.0765 17.1763Z" fill="white"/>
<path d="M15.5469 32.3906V30.6875H24.5625V32.3906H21.0781V42H19.0469V32.3906H15.5469ZM35.11 36.3438C35.11 40 32.8912 42.1562 29.9225 42.1562C26.9537 42.1562 24.735 39.9844 24.735 36.3438C24.735 32.6875 26.9537 30.5312 29.9225 30.5312C32.8912 30.5312 35.11 32.6875 35.11 36.3438ZM33.0631 36.3438C33.0631 33.7656 31.7662 32.3594 29.9225 32.3594C28.0787 32.3594 26.7819 33.7656 26.7819 36.3438C26.7819 38.9219 28.0787 40.3281 29.9225 40.3281C31.7662 40.3281 33.0631 38.9219 33.0631 36.3438ZM36.2825 42V30.6875H40.5325C43.1262 30.6875 44.5169 32.2656 44.5169 34.4375C44.5169 36.6094 43.1106 38.1719 40.5012 38.1719H38.3137V42H36.2825ZM38.3137 36.5H40.22C41.7512 36.5 42.4387 35.6406 42.4387 34.4375C42.4387 33.2188 41.7512 32.3906 40.22 32.3906H38.3137V36.5Z" fill="white"/>
</svg>
