<svg width="52" height="52" viewBox="0 0 52 52" fill="none" xmlns="http://www.w3.org/2000/svg">
<circle cx="26" cy="26" r="25.5" stroke="#403789"/>
<path d="M21.125 17.2V21.2H24.375V17.2H31.8246L34.125 19.465V21.2H37.375V19.465C37.375 18.615 37.0348 17.8 36.4254 17.2L34.125 14.935C33.5156 14.335 32.6879 14 31.8246 14H24.375C22.5824 14 21.125 15.435 21.125 17.2ZM14.625 20.4C13.7262 20.4 13 21.115 13 22V36.4C13 37.285 13.7262 38 14.625 38H17.0625C17.9613 38 18.6875 37.285 18.6875 36.4V22C18.6875 21.115 17.9613 20.4 17.0625 20.4H14.625ZM37.375 23.6H21.125V36.4C21.125 37.285 21.8512 38 22.75 38H37.375C38.2738 38 39 37.285 39 36.4V25.2C39 24.315 38.2738 23.6 37.375 23.6ZM24.375 28.4C24.375 27.735 24.9184 27.2 25.5938 27.2C26.2691 27.2 26.8125 27.735 26.8125 28.4C26.8125 29.065 26.2691 29.6 25.5938 29.6C24.9184 29.6 24.375 29.065 24.375 28.4ZM24.375 33.2C24.375 32.535 24.9184 32 25.5938 32C26.2691 32 26.8125 32.535 26.8125 33.2C26.8125 33.865 26.2691 34.4 25.5938 34.4C24.9184 34.4 24.375 33.865 24.375 33.2ZM30.0625 27.2C30.7379 27.2 31.2812 27.735 31.2812 28.4C31.2812 29.065 30.7379 29.6 30.0625 29.6C29.3871 29.6 28.8438 29.065 28.8438 28.4C28.8438 27.735 29.3871 27.2 30.0625 27.2ZM28.8438 33.2C28.8438 32.535 29.3871 32 30.0625 32C30.7379 32 31.2812 32.535 31.2812 33.2C31.2812 33.865 30.7379 34.4 30.0625 34.4C29.3871 34.4 28.8438 33.865 28.8438 33.2ZM34.5312 27.2C35.2066 27.2 35.75 27.735 35.75 28.4C35.75 29.065 35.2066 29.6 34.5312 29.6C33.8559 29.6 33.3125 29.065 33.3125 28.4C33.3125 27.735 33.8559 27.2 34.5312 27.2ZM33.3125 33.2C33.3125 32.535 33.8559 32 34.5312 32C35.2066 32 35.75 32.535 35.75 33.2C35.75 33.865 35.2066 34.4 34.5312 34.4C33.8559 34.4 33.3125 33.865 33.3125 33.2Z" fill="#403789"/>
</svg>
