<svg width="160" height="160" viewBox="0 0 160 160" fill="none" xmlns="http://www.w3.org/2000/svg">
<circle cx="80" cy="80" r="80" fill="#F5F5F5"/>
<g clip-path="url(#clip0_80_15959)">
<path d="M107.474 97.6923H105.947V70C105.947 69.1538 105.261 68.4615 104.421 68.4615H98.3158V65.3846C98.3158 64.8154 98.1479 64.3077 97.8884 63.8462C98.1479 63.3846 98.3158 62.8769 98.3158 62.3077V53.0769C98.3158 51.3846 96.9421 50 95.2632 50H64.7368C63.0579 50 61.6842 51.3846 61.6842 53.0769V62.3077C61.6842 62.8769 61.8521 63.3846 62.1116 63.8462C61.8521 64.3077 61.6842 64.8154 61.6842 65.3846V68.4615H55.5789C54.7395 68.4615 54.0526 69.1538 54.0526 70V97.6923H52.5263C51.6868 97.6923 51 98.3846 51 99.2308V105.385C51 105.8 51.1679 106.185 51.4426 106.477L54.4953 109.554C54.7853 109.831 55.1668 110 55.5789 110H104.421C104.833 110 105.215 109.831 105.505 109.554L108.557 106.477C108.832 106.185 109 105.8 109 105.385V99.2308C109 98.3846 108.313 97.6923 107.474 97.6923ZM64.7368 53.0769H95.2632V62.3077H64.7368V53.0769ZM64.7368 65.3846H95.2632V74.6154H64.7368V65.3846ZM81.5263 90C81.5263 90.8462 80.8395 91.5385 80 91.5385C79.1605 91.5385 78.4737 90.8462 78.4737 90C78.4737 89.1538 79.1605 88.4615 80 88.4615C80.8395 88.4615 81.5263 89.1538 81.5263 90ZM57.1053 71.5385H61.6842V74.6154C61.6842 76.3077 63.0579 77.6923 64.7368 77.6923H70.8421V83.8462H69.0411C68.4 82.0615 66.7211 80.7692 64.7368 80.7692C62.2184 80.7692 60.1579 82.8462 60.1579 85.3846C60.1579 87.9231 62.2184 90 64.7368 90C66.7211 90 68.4 88.7077 69.0411 86.9231H72.3684C73.2079 86.9231 73.8947 86.2308 73.8947 85.3846V77.6923H78.4737V85.6615C76.7032 86.3077 75.4211 88 75.4211 90C75.4211 92.5385 77.4816 94.6154 80 94.6154C82.5184 94.6154 84.5789 92.5385 84.5789 90C84.5789 88 83.2968 86.3077 81.5263 85.6615V77.6923H86.1053V85.3846C86.1053 86.2308 86.7921 86.9231 87.6316 86.9231H90.959C91.6 88.7077 93.2789 90 95.2632 90C97.7816 90 99.8421 87.9231 99.8421 85.3846C99.8421 82.8462 97.7816 80.7692 95.2632 80.7692C93.2789 80.7692 91.6 82.0615 90.959 83.8462H89.1579V77.6923H95.2632C96.9421 77.6923 98.3158 76.3077 98.3158 74.6154V71.5385H102.895V97.6923H57.1053V71.5385ZM66.2632 85.3846C66.2632 86.2308 65.5763 86.9231 64.7368 86.9231C63.8974 86.9231 63.2105 86.2308 63.2105 85.3846C63.2105 84.5385 63.8974 83.8462 64.7368 83.8462C65.5763 83.8462 66.2632 84.5385 66.2632 85.3846ZM93.7368 85.3846C93.7368 84.5385 94.4237 83.8462 95.2632 83.8462C96.1026 83.8462 96.7895 84.5385 96.7895 85.3846C96.7895 86.2308 96.1026 86.9231 95.2632 86.9231C94.4237 86.9231 93.7368 86.2308 93.7368 85.3846ZM61.6842 106.923H56.2047L54.0526 104.754V100.769H61.6842V106.923ZM95.2632 106.923H64.7368V100.769H95.2632V106.923ZM105.947 104.754L103.795 106.923H98.3158V100.769H105.947V104.754Z" fill="#666666"/>
<path d="M69.3159 59.2307C70.1588 59.2307 70.8422 58.5419 70.8422 57.6923C70.8422 56.8426 70.1588 56.1538 69.3159 56.1538C68.4729 56.1538 67.7896 56.8426 67.7896 57.6923C67.7896 58.5419 68.4729 59.2307 69.3159 59.2307Z" fill="#666666"/>
<path d="M75.4211 59.2307C76.2641 59.2307 76.9474 58.5419 76.9474 57.6923C76.9474 56.8426 76.2641 56.1538 75.4211 56.1538C74.5781 56.1538 73.8948 56.8426 73.8948 57.6923C73.8948 58.5419 74.5781 59.2307 75.4211 59.2307Z" fill="#666666"/>
<path d="M69.3159 71.5385C70.1588 71.5385 70.8422 70.8497 70.8422 70C70.8422 69.1503 70.1588 68.4615 69.3159 68.4615C68.4729 68.4615 67.7896 69.1503 67.7896 70C67.7896 70.8497 68.4729 71.5385 69.3159 71.5385Z" fill="#666666"/>
<path d="M75.4211 71.5385C76.2641 71.5385 76.9474 70.8497 76.9474 70C76.9474 69.1503 76.2641 68.4615 75.4211 68.4615C74.5781 68.4615 73.8948 69.1503 73.8948 70C73.8948 70.8497 74.5781 71.5385 75.4211 71.5385Z" fill="#666666"/>
</g>
<defs>
<clipPath id="clip0_80_15959">
<rect width="58" height="60" fill="white" transform="translate(51 50)"/>
</clipPath>
</defs>
</svg>
