<svg width="160" height="160" viewBox="0 0 160 160" fill="none" xmlns="http://www.w3.org/2000/svg">
<circle cx="80" cy="80" r="80" fill="#F5F5F5"/>
<g clip-path="url(#clip0_80_15974)">
<path d="M108.421 54.7368H74.2053L68.3158 50.3158C68.0474 50.1105 67.7158 50 67.3684 50H51.5789C50.7105 50 50 50.7105 50 51.5789V92.6316C50 93.5 50.7105 94.2105 51.5789 94.2105H61.0526V97.3684C61.0526 97.9526 61.2263 98.4737 61.4947 98.9474C61.2263 99.4211 61.0526 99.9421 61.0526 100.526V106.842C61.0526 108.579 62.4737 110 64.2105 110H95.7895C97.5263 110 98.9474 108.579 98.9474 106.842V100.526C98.9474 99.9421 98.7737 99.4211 98.5053 98.9474C98.7737 98.4737 98.9474 97.9526 98.9474 97.3684V94.2105H108.421C109.289 94.2105 110 93.5 110 92.6316V56.3158C110 55.4474 109.289 54.7368 108.421 54.7368ZM53.1579 75.2632H87.8947C88.3211 75.2632 88.7158 75.0895 89.0158 74.8053L93.2789 70.5263H106.842V78.4211H53.1579V75.2632ZM100.526 67.3684H92.6316C92.2053 67.3684 91.8105 67.5421 91.5105 67.8263L87.2474 72.1053H59.4737V64.2105H100.526V67.3684ZM66.8474 53.1579L72.7368 57.5789C73.0053 57.7842 73.3368 57.8947 73.6842 57.8947H106.842V67.3684H103.684V62.6316C103.684 61.7632 102.974 61.0526 102.105 61.0526H57.8947C57.0263 61.0526 56.3158 61.7632 56.3158 62.6316V72.1053H53.1579V53.1579H66.8474ZM95.7895 92.6316V97.3684H64.2105V91.0526H95.7895V92.6316ZM64.2105 106.842V100.526H95.7895V106.842H64.2105ZM98.9474 91.0526C98.9474 89.3158 97.5263 87.8947 95.7895 87.8947H64.2105C62.4737 87.8947 61.0526 89.3158 61.0526 91.0526H53.1579V81.5789H106.842V91.0526H98.9474Z" fill="#666666"/>
<path d="M68.9474 95.7895C69.8194 95.7895 70.5263 95.0826 70.5263 94.2105C70.5263 93.3385 69.8194 92.6316 68.9474 92.6316C68.0753 92.6316 67.3684 93.3385 67.3684 94.2105C67.3684 95.0826 68.0753 95.7895 68.9474 95.7895Z" fill="#666666"/>
<path d="M75.2633 95.7895C76.1353 95.7895 76.8422 95.0826 76.8422 94.2105C76.8422 93.3385 76.1353 92.6316 75.2633 92.6316C74.3912 92.6316 73.6843 93.3385 73.6843 94.2105C73.6843 95.0826 74.3912 95.7895 75.2633 95.7895Z" fill="#666666"/>
<path d="M68.9474 105.263C69.8194 105.263 70.5263 104.556 70.5263 103.684C70.5263 102.812 69.8194 102.105 68.9474 102.105C68.0753 102.105 67.3684 102.812 67.3684 103.684C67.3684 104.556 68.0753 105.263 68.9474 105.263Z" fill="#666666"/>
<path d="M75.2633 105.263C76.1353 105.263 76.8422 104.556 76.8422 103.684C76.8422 102.812 76.1353 102.105 75.2633 102.105C74.3912 102.105 73.6843 102.812 73.6843 103.684C73.6843 104.556 74.3912 105.263 75.2633 105.263Z" fill="#666666"/>
</g>
<defs>
<clipPath id="clip0_80_15974">
<rect width="60" height="60" fill="white" transform="translate(50 50)"/>
</clipPath>
</defs>
</svg>
