<svg width="160" height="160" viewBox="0 0 160 160" fill="none" xmlns="http://www.w3.org/2000/svg">
<circle cx="80" cy="80" r="80" fill="#F5F5F5"/>
<g clip-path="url(#clip0_80_16004)">
<path d="M108.421 73.6842C109.289 73.6842 110 72.9737 110 72.1053C110 71.2368 109.289 70.5263 108.421 70.5263H102.105V65.7895H108.421C109.289 65.7895 110 65.0789 110 64.2105C110 63.3421 109.289 62.6316 108.421 62.6316H102.105V59.4737C102.105 58.6053 101.395 57.8947 100.526 57.8947H97.3684V51.5789C97.3684 50.7105 96.6579 50 95.7895 50C94.9211 50 94.2105 50.7105 94.2105 51.5789V57.8947H89.4737V51.5789C89.4737 50.7105 88.7632 50 87.8947 50C87.0263 50 86.3158 50.7105 86.3158 51.5789V57.8947H81.5789V51.5789C81.5789 50.7105 80.8684 50 80 50C79.1316 50 78.4211 50.7105 78.4211 51.5789V57.8947H73.6842V51.5789C73.6842 50.7105 72.9737 50 72.1053 50C71.2368 50 70.5263 50.7105 70.5263 51.5789V57.8947H65.7895V51.5789C65.7895 50.7105 65.0789 50 64.2105 50C63.3421 50 62.6316 50.7105 62.6316 51.5789V57.8947H59.4737C58.6053 57.8947 57.8947 58.6053 57.8947 59.4737V62.6316H51.5789C50.7105 62.6316 50 63.3421 50 64.2105C50 65.0789 50.7105 65.7895 51.5789 65.7895H57.8947V70.5263H51.5789C50.7105 70.5263 50 71.2368 50 72.1053C50 72.9737 50.7105 73.6842 51.5789 73.6842H57.8947V78.4211H51.5789C50.7105 78.4211 50 79.1316 50 80C50 80.8684 50.7105 81.5789 51.5789 81.5789H57.8947V86.3158H51.5789C50.7105 86.3158 50 87.0263 50 87.8947C50 88.7632 50.7105 89.4737 51.5789 89.4737H57.8947V94.2105H51.5789C50.7105 94.2105 50 94.9211 50 95.7895C50 96.6579 50.7105 97.3684 51.5789 97.3684H57.8947V100.526C57.8947 101.395 58.6053 102.105 59.4737 102.105H62.6316V108.421C62.6316 109.289 63.3421 110 64.2105 110C65.0789 110 65.7895 109.289 65.7895 108.421V102.105H70.5263V108.421C70.5263 109.289 71.2368 110 72.1053 110C72.9737 110 73.6842 109.289 73.6842 108.421V102.105H78.4211V108.421C78.4211 109.289 79.1316 110 80 110C80.8684 110 81.5789 109.289 81.5789 108.421V102.105H86.3158V108.421C86.3158 109.289 87.0263 110 87.8947 110C88.7632 110 89.4737 109.289 89.4737 108.421V102.105H94.2105V108.421C94.2105 109.289 94.9211 110 95.7895 110C96.6579 110 97.3684 109.289 97.3684 108.421V102.105H100.526C101.395 102.105 102.105 101.395 102.105 100.526V97.3684H108.421C109.289 97.3684 110 96.6579 110 95.7895C110 94.9211 109.289 94.2105 108.421 94.2105H102.105V89.4737H108.421C109.289 89.4737 110 88.7632 110 87.8947C110 87.0263 109.289 86.3158 108.421 86.3158H102.105V81.5789H108.421C109.289 81.5789 110 80.8684 110 80C110 79.1316 109.289 78.4211 108.421 78.4211H102.105V73.6842H108.421ZM98.9474 98.9474H61.0526V61.0526H98.9474V98.9474Z" fill="#666666"/>
<path d="M89.4736 76.8421H87.8946V72.1053C87.8946 67.7474 84.3578 64.2106 79.9999 64.2106C75.642 64.2106 72.1052 67.7474 72.1052 72.1053V76.8421H70.5262C69.6578 76.8421 68.9473 77.5527 68.9473 78.4211V94.2106C68.9473 95.079 69.6578 95.7895 70.5262 95.7895H89.4736C90.342 95.7895 91.0525 95.079 91.0525 94.2106V78.4211C91.0525 77.5527 90.342 76.8421 89.4736 76.8421ZM75.2631 72.1053C75.2631 69.5 77.3946 67.3685 79.9999 67.3685C82.6052 67.3685 84.7367 69.5 84.7367 72.1053V76.8421H75.2631V72.1053ZM87.8946 92.6316H72.1052V80H87.8946V92.6316Z" fill="#666666"/>
<path d="M80.0001 83.1578C79.1317 83.1578 78.4211 83.8684 78.4211 84.7368V87.8947C78.4211 88.7631 79.1317 89.4736 80.0001 89.4736C80.8685 89.4736 81.579 88.7631 81.579 87.8947V84.7368C81.579 83.8684 80.8685 83.1578 80.0001 83.1578Z" fill="#666666"/>
</g>
<defs>
<clipPath id="clip0_80_16004">
<rect width="60" height="60" fill="white" transform="translate(50 50)"/>
</clipPath>
</defs>
</svg>
