<svg width="48" height="48" viewBox="0 0 48 48" fill="none" xmlns="http://www.w3.org/2000/svg">
<circle cx="24" cy="24" r="24" fill="#403789"/>
<g clip-path="url(#clip0_80_16029)">
<path d="M37 24C37 22.31 36.2268 20.7363 34.9132 19.7032C34.9337 19.5321 34.9474 19.3747 34.9474 19.2105C34.9474 17.0347 33.2505 15.2489 31.1089 15.1121C29.6447 12.5668 26.9558 11 24 11C21.0442 11 18.3553 12.5668 16.8911 15.1121C14.7495 15.2489 13.0526 17.0347 13.0526 19.2105C13.0526 19.3747 13.0663 19.5321 13.0868 19.7032C11.7732 20.7363 11 22.31 11 24C11 26.7984 13.1074 29.1042 15.8237 29.4326C16.1521 33.6611 19.6895 37 24 37C28.3105 37 31.8479 33.6611 32.1763 29.4326C34.8926 29.1042 37 26.7984 37 24ZM24 35.6316C20.23 35.6316 17.1579 32.5595 17.1579 28.7895C17.1579 25.0195 20.23 21.9474 24 21.9474C27.77 21.9474 30.8421 25.0195 30.8421 28.7895C30.8421 32.5595 27.77 35.6316 24 35.6316ZM32.1763 28.0505C31.8 23.87 28.2763 20.5789 24 20.5789C19.7237 20.5789 16.2 23.87 15.8237 28.0505C13.8668 27.7358 12.3684 26.0458 12.3684 24C12.3684 22.6179 13.0595 21.3384 14.2158 20.5789C14.4553 20.4216 14.5716 20.1274 14.5032 19.8468C14.4484 19.6074 14.4211 19.4021 14.4211 19.2105C14.4211 17.6984 15.6458 16.4737 17.1237 16.4737C17.4111 16.5147 17.76 16.3984 17.9037 16.1179C19.0805 13.8053 21.4205 12.3684 24 12.3684C26.5795 12.3684 28.9195 13.8053 30.0963 16.1111C30.2126 16.3368 30.4453 16.4874 30.7053 16.4874C30.7668 16.4874 30.8216 16.4805 30.8421 16.4737C32.3542 16.4737 33.5789 17.6984 33.5789 19.2105C33.5789 19.4021 33.5516 19.6074 33.4968 19.8468C33.4284 20.1274 33.5447 20.4216 33.7842 20.5789C34.9405 21.3384 35.6316 22.6179 35.6316 24C35.6316 26.0458 34.1332 27.7358 32.1763 28.0505Z" fill="white"/>
<path d="M27.4211 28.1053V26.7368H28.1053C28.4816 26.7368 28.7895 26.429 28.7895 26.0526C28.7895 25.6763 28.4816 25.3684 28.1053 25.3684H27.4211V24.6842C27.4211 24.3079 27.1132 24 26.7369 24C26.3606 24 26.0527 24.3079 26.0527 24.6842V25.3684H24.6843V24C24.6843 23.6237 24.3764 23.3158 24.0001 23.3158C23.6237 23.3158 23.3158 23.6237 23.3158 24V25.3684H21.9474V24.6842C21.9474 24.3079 21.6395 24 21.2632 24C20.8869 24 20.579 24.3079 20.579 24.6842V25.3684H19.8948C19.5185 25.3684 19.2106 25.6763 19.2106 26.0526C19.2106 26.429 19.5185 26.7368 19.8948 26.7368H20.579V28.1053H19.2106C18.8343 28.1053 18.5264 28.4132 18.5264 28.7895C18.5264 29.1658 18.8343 29.4737 19.2106 29.4737H20.579V30.8421H19.8948C19.5185 30.8421 19.2106 31.15 19.2106 31.5263C19.2106 31.9026 19.5185 32.2105 19.8948 32.2105H20.579V32.8947C20.579 33.2711 20.8869 33.579 21.2632 33.579C21.6395 33.579 21.9474 33.2711 21.9474 32.8947V32.2105H23.3158V33.579C23.3158 33.9553 23.6237 34.2632 24.0001 34.2632C24.3764 34.2632 24.6843 33.9553 24.6843 33.579V32.2105H26.0527V32.8947C26.0527 33.2711 26.3606 33.579 26.7369 33.579C27.1132 33.579 27.4211 33.2711 27.4211 32.8947V32.2105H28.1053C28.4816 32.2105 28.7895 31.9026 28.7895 31.5263C28.7895 31.15 28.4816 30.8421 28.1053 30.8421H27.4211V29.4737H28.7895C29.1658 29.4737 29.4737 29.1658 29.4737 28.7895C29.4737 28.4132 29.1658 28.1053 28.7895 28.1053H27.4211ZM21.9474 26.7368H26.0527V30.8421H21.9474V26.7368Z" fill="white"/>
<path d="M23.9999 29.4736C24.3778 29.4736 24.6841 29.1673 24.6841 28.7894C24.6841 28.4116 24.3778 28.1052 23.9999 28.1052C23.622 28.1052 23.3157 28.4116 23.3157 28.7894C23.3157 29.1673 23.622 29.4736 23.9999 29.4736Z" fill="white"/>
</g>
<defs>
<clipPath id="clip0_80_16029">
<rect width="26" height="26" fill="white" transform="translate(11 11)"/>
</clipPath>
</defs>
</svg>
