<svg width="52" height="52" viewBox="0 0 52 52" fill="none" xmlns="http://www.w3.org/2000/svg">
<circle cx="26" cy="26" r="25.5" stroke="#403789"/>
<path d="M16.25 17C15.0078 17 14 18.0078 14 19.25C14 19.9578 14.3328 20.6234 14.9 21.05L24.65 28.3625C25.4516 28.9625 26.5484 28.9625 27.35 28.3625L37.1 21.05C37.6672 20.6234 38 19.9578 38 19.25C38 18.0078 36.9922 17 35.75 17H16.25ZM14 23.1875V32C14 33.6547 15.3453 35 17 35H35C36.6547 35 38 33.6547 38 32V23.1875L28.7 30.1625C27.1016 31.3625 24.8984 31.3625 23.3 30.1625L14 23.1875Z" fill="#403789"/>
</svg>
