<svg width="48" height="48" viewBox="0 0 48 48" fill="none" xmlns="http://www.w3.org/2000/svg">
<circle cx="24" cy="24" r="24" fill="#403789"/>
<g clip-path="url(#clip0_80_16048)">
<path d="M36.3158 15.7895H32.8947V11.6842C32.8947 11.3079 32.5868 11 32.2105 11H15.7895C15.4132 11 15.1053 11.3079 15.1053 11.6842V15.7895H11.6842C11.3079 15.7895 11 16.0974 11 16.4737V32.2105C11 32.5868 11.3079 32.8947 11.6842 32.8947H19.2105V35.6316H17.8421C17.4658 35.6316 17.1579 35.9395 17.1579 36.3158C17.1579 36.6921 17.4658 37 17.8421 37H30.1579C30.5342 37 30.8421 36.6921 30.8421 36.3158C30.8421 35.9395 30.5342 35.6316 30.1579 35.6316H28.7895V32.8947H36.3158C36.6921 32.8947 37 32.5868 37 32.2105V16.4737C37 16.0974 36.6921 15.7895 36.3158 15.7895ZM16.4737 12.3684H31.5263V24.6842H16.4737V12.3684ZM27.4211 35.6316H20.5789V32.8947H27.4211V35.6316ZM35.6316 31.5263H12.3684V29.4737H35.6316V31.5263ZM35.6316 28.1053H12.3684V17.1579H15.1053V25.3684C15.1053 25.7447 15.4132 26.0526 15.7895 26.0526H32.2105C32.5868 26.0526 32.8947 25.7447 32.8947 25.3684V17.1579H35.6316V28.1053Z" fill="white"/>
<path d="M19.2106 23.3158H28.7895C29.1658 23.3158 29.4737 23.0079 29.4737 22.6316C29.4737 22.2553 29.1658 21.9474 28.7895 21.9474H19.2106C18.8343 21.9474 18.5264 22.2553 18.5264 22.6316C18.5264 23.0079 18.8343 23.3158 19.2106 23.3158Z" fill="white"/>
<path d="M19.2106 20.579H28.7895C29.1658 20.579 29.4737 20.2711 29.4737 19.8948C29.4737 19.5185 29.1658 19.2106 28.7895 19.2106H19.2106C18.8343 19.2106 18.5264 19.5185 18.5264 19.8948C18.5264 20.2711 18.8343 20.579 19.2106 20.579Z" fill="white"/>
<path d="M19.2106 17.8421H28.7895C29.1658 17.8421 29.4737 17.5342 29.4737 17.1578C29.4737 16.7815 29.1658 16.4736 28.7895 16.4736H19.2106C18.8343 16.4736 18.5264 16.7815 18.5264 17.1578C18.5264 17.5342 18.8343 17.8421 19.2106 17.8421Z" fill="white"/>
<path d="M19.2106 15.1052H28.7895C29.1658 15.1052 29.4737 14.7973 29.4737 14.421C29.4737 14.0447 29.1658 13.7368 28.7895 13.7368H19.2106C18.8343 13.7368 18.5264 14.0447 18.5264 14.421C18.5264 14.7973 18.8343 15.1052 19.2106 15.1052Z" fill="white"/>
</g>
<defs>
<clipPath id="clip0_80_16048">
<rect width="26" height="26" fill="white" transform="translate(11 11)"/>
</clipPath>
</defs>
</svg>
