<svg width="48" height="48" viewBox="0 0 48 48" fill="none" xmlns="http://www.w3.org/2000/svg">
<circle cx="24" cy="24" r="24" fill="#403789"/>
<g clip-path="url(#clip0_80_16069)">
<path d="M34.9132 19.7032C34.9337 19.5321 34.9474 19.3747 34.9474 19.2105C34.9474 17.0347 33.2505 15.2489 31.1089 15.1121C29.6447 12.5668 26.9558 11 24 11C21.0442 11 18.3553 12.5668 16.8911 15.1121C14.5921 15.2626 12.7789 17.4042 13.0868 19.7032C11.7732 20.7363 11 22.31 11 24C11 26.7847 13.0937 29.0905 15.7895 29.4258V34.2632C15.7895 35.7753 17.0142 37 18.5263 37H29.4737C30.9858 37 32.2105 35.7753 32.2105 34.2632V29.4258C34.9063 29.0905 37 26.7847 37 24C37 22.31 36.2268 20.7363 34.9132 19.7032ZM18.5263 35.6316C17.7737 35.6316 17.1579 35.0158 17.1579 34.2632V20.5789H26.7368V34.2632C26.7368 34.7626 26.8805 35.2279 27.12 35.6316H18.5263ZM30.8421 34.2632C30.8421 35.0158 30.2263 35.6316 29.4737 35.6316C28.7211 35.6316 28.1053 35.0158 28.1053 34.2632V26.7368H30.8421V34.2632ZM32.2105 28.0437V26.0526C32.2105 25.6763 31.9026 25.3684 31.5263 25.3684H28.1053V19.8947C28.1053 19.5184 27.7974 19.2105 27.4211 19.2105H16.4737C16.0974 19.2105 15.7895 19.5184 15.7895 19.8947V28.0437C13.8532 27.7153 12.3684 26.0321 12.3684 24C12.3684 22.6179 13.0595 21.3384 14.2158 20.5789C14.4553 20.4147 14.5716 20.1274 14.5032 19.8468C14.1405 18.3279 15.3926 16.2205 17.1237 16.4737C17.4179 16.5147 17.76 16.3984 17.9037 16.1111C19.0805 13.8053 21.4205 12.3684 24 12.3684C26.5795 12.3684 28.9195 13.8053 30.0963 16.1111C30.2537 16.4258 30.5274 16.4737 30.8421 16.4737C32.5937 16.4737 33.9005 18.15 33.4968 19.8468C33.4284 20.1274 33.5447 20.4147 33.7842 20.5789C34.9405 21.3384 35.6316 22.6179 35.6316 24C35.6316 26.0321 34.1468 27.7153 32.2105 28.0437Z" fill="white"/>
<path d="M24.6843 21.9474H19.2106C18.8343 21.9474 18.5264 22.2553 18.5264 22.6316V25.3684C18.5264 25.7448 18.8343 26.0527 19.2106 26.0527H24.6843C25.0606 26.0527 25.3685 25.7448 25.3685 25.3684V22.6316C25.3685 22.2553 25.0606 21.9474 24.6843 21.9474ZM24.0001 24.6842H19.8948V23.3158H24.0001V24.6842Z" fill="white"/>
<path d="M24.6843 32.8948H19.2106C18.8343 32.8948 18.5264 33.2027 18.5264 33.579C18.5264 33.9553 18.8343 34.2632 19.2106 34.2632H24.6843C25.0606 34.2632 25.3685 33.9553 25.3685 33.579C25.3685 33.2027 25.0606 32.8948 24.6843 32.8948Z" fill="white"/>
<path d="M24.6843 30.1578H19.2106C18.8343 30.1578 18.5264 30.4657 18.5264 30.842C18.5264 31.2184 18.8343 31.5263 19.2106 31.5263H24.6843C25.0606 31.5263 25.3685 31.2184 25.3685 30.842C25.3685 30.4657 25.0606 30.1578 24.6843 30.1578Z" fill="white"/>
<path d="M24.6843 27.421H19.2106C18.8343 27.421 18.5264 27.7289 18.5264 28.1052C18.5264 28.4815 18.8343 28.7894 19.2106 28.7894H24.6843C25.0606 28.7894 25.3685 28.4815 25.3685 28.1052C25.3685 27.7289 25.0606 27.421 24.6843 27.421Z" fill="white"/>
</g>
<defs>
<clipPath id="clip0_80_16069">
<rect width="26" height="26" fill="white" transform="translate(11 11)"/>
</clipPath>
</defs>
</svg>
