<svg width="52" height="52" viewBox="0 0 52 52" fill="none" xmlns="http://www.w3.org/2000/svg">
<circle cx="26" cy="26" r="25.5" stroke="#403789"/>
<path d="M21.5062 15.1725C21.1358 14.2865 20.1702 13.8177 19.2514 14.0662L18.9935 14.1365C15.9652 14.9616 13.3776 17.8962 14.1323 21.4683C15.8715 29.672 22.3265 36.1272 30.5301 37.8664C34.1069 38.6258 37.0367 36.0334 37.8618 33.0051L37.9321 32.7472C38.1852 31.8237 37.7117 30.858 36.8304 30.4924L32.2693 28.5938C31.4958 28.2704 30.6004 28.4954 30.066 29.147L28.2565 31.3596C24.9611 29.7236 22.3078 26.9859 20.7843 23.6247L22.8562 21.9371C23.5078 21.4074 23.7282 20.512 23.4094 19.7338L21.5062 15.1725Z" fill="#403789"/>
</svg>
