<svg width="160" height="160" viewBox="0 0 160 160" fill="none" xmlns="http://www.w3.org/2000/svg">
<circle cx="80" cy="80" r="80" fill="#F5F5F5"/>
<g clip-path="url(#clip0_80_15989)">
<path d="M102.105 75.2632C106.463 75.2632 110 71.7263 110 67.3684V57.8947C110 57.0263 109.289 56.3158 108.421 56.3158H106.842V51.5789C106.842 50.7105 106.132 50 105.263 50H98.9474C98.0789 50 97.3684 50.7105 97.3684 51.5789V56.3158H95.7895C94.9211 56.3158 94.2105 57.0263 94.2105 57.8947V62.6316H89.4737C88.6053 62.6316 87.8947 63.3421 87.8947 64.2105V78.4211H84.7368V59.4737C84.7368 58.6053 84.0263 57.8947 83.1579 57.8947H61.0526C60.6263 57.8947 60.2316 58.0684 59.9316 58.3526L50.4579 67.8263C50.1737 68.1263 50 68.5211 50 68.9474V100.526C50 101.395 50.7105 102.105 51.5789 102.105H83.1579C84.0263 102.105 84.7368 101.395 84.7368 100.526V81.5789H87.8947V100.526C87.8947 101.395 88.6053 102.105 89.4737 102.105H94.2105C94.2105 106.463 97.7474 110 102.105 110C106.463 110 110 106.463 110 102.105V92.6316C110 91.7632 109.289 91.0526 108.421 91.0526H106.842V86.3158C106.842 85.4474 106.132 84.7368 105.263 84.7368H98.9474C98.0789 84.7368 97.3684 85.4474 97.3684 86.3158V91.0526H95.7895C94.9211 91.0526 94.2105 91.7632 94.2105 92.6316V98.9474H91.0526V65.7895H94.2105V67.3684C94.2105 71.7263 97.7474 75.2632 102.105 75.2632ZM100.526 53.1579H103.684V56.3158H100.526V53.1579ZM97.3684 59.4737H106.842V67.3684C106.842 69.9737 104.711 72.1053 102.105 72.1053C99.5 72.1053 97.3684 69.9737 97.3684 67.3684V59.4737ZM59.4737 63.2789V67.3684H55.3842L59.4737 63.2789ZM81.5789 98.9474H53.1579V70.5263H61.0526C61.9211 70.5263 62.6316 69.8158 62.6316 68.9474V61.0526H81.5789V98.9474ZM100.526 87.8947H103.684V91.0526H100.526V87.8947ZM97.3684 94.2105H106.842V102.105C106.842 104.711 104.711 106.842 102.105 106.842C99.5 106.842 97.3684 104.711 97.3684 102.105V94.2105Z" fill="#666666"/>
<path d="M57.8946 76.8421H64.2104C65.0788 76.8421 65.7894 76.1316 65.7894 75.2632C65.7894 74.3947 65.0788 73.6842 64.2104 73.6842H57.8946C57.0262 73.6842 56.3157 74.3947 56.3157 75.2632C56.3157 76.1316 57.0262 76.8421 57.8946 76.8421Z" fill="#666666"/>
<path d="M76.842 80H57.8946C57.0262 80 56.3157 80.7105 56.3157 81.5789C56.3157 82.4474 57.0262 83.1579 57.8946 83.1579H76.842C77.7104 83.1579 78.4209 82.4474 78.4209 81.5789C78.4209 80.7105 77.7104 80 76.842 80Z" fill="#666666"/>
<path d="M76.842 86.3158H57.8946C57.0262 86.3158 56.3157 87.0263 56.3157 87.8947C56.3157 88.7632 57.0262 89.4737 57.8946 89.4737H76.842C77.7104 89.4737 78.4209 88.7632 78.4209 87.8947C78.4209 87.0263 77.7104 86.3158 76.842 86.3158Z" fill="#666666"/>
<path d="M76.842 92.6316H57.8946C57.0262 92.6316 56.3157 93.3421 56.3157 94.2105C56.3157 95.079 57.0262 95.7895 57.8946 95.7895H76.842C77.7104 95.7895 78.4209 95.079 78.4209 94.2105C78.4209 93.3421 77.7104 92.6316 76.842 92.6316Z" fill="#666666"/>
</g>
<defs>
<clipPath id="clip0_80_15989">
<rect width="60" height="60" fill="white" transform="translate(50 50)"/>
</clipPath>
</defs>
</svg>
