<svg width="80" height="80" viewBox="0 0 80 80" fill="none" xmlns="http://www.w3.org/2000/svg">
<circle cx="40" cy="40" r="40" fill="#403789"/>
<path d="M58 51H57V33C57 32.45 56.55 32 56 32H51.95C51.44 25.85 46.28 21 40 21C33.72 21 28.56 25.85 28.05 32H24C23.45 32 23 32.45 23 33V51H22C21.45 51 21 51.45 21 52V56C21 56.27 21.11 56.52 21.29 56.71L23.29 58.71C23.48 58.89 23.73 59 24 59H56C56.27 59 56.52 58.89 56.71 58.71L58.71 56.71C58.89 56.52 59 56.27 59 56V52C59 51.45 58.55 51 58 51ZM40 23C45.51 23 50 27.49 50 33C50 38.51 45.51 43 40 43C34.49 43 30 38.51 30 33C30 27.49 34.49 23 40 23ZM25 34H28.05C28.56 40.15 33.72 45 40 45C46.28 45 51.44 40.15 51.95 34H55V51H25V34ZM28 57H24.41L23 55.59V53H28V57ZM50 57H30V53H50V57ZM57 55.59L55.59 57H52V53H57V55.59Z" fill="white"/>
<path d="M35 34V36H34C33.4473 36 33 36.4478 33 37C33 37.5522 33.4473 38 34 38H35V39C35 39.5522 35.4473 40 36 40C36.5527 40 37 39.5522 37 39V38H39V40C39 40.5522 39.4473 41 40 41C40.5527 41 41 40.5522 41 40V38H43V39C43 39.5522 43.4473 40 44 40C44.5527 40 45 39.5522 45 39V38H46C46.5527 38 47 37.5522 47 37C47 36.4478 46.5527 36 46 36H45V34H47C47.5527 34 48 33.5522 48 33C48 32.4478 47.5527 32 47 32H45V30H46C46.5527 30 47 29.5522 47 29C47 28.4478 46.5527 28 46 28H45V27C45 26.4477 44.5527 26 44 26C43.4473 26 43 26.4477 43 27V28H41V26C41 25.4477 40.5527 25 40 25C39.4473 25 39 25.4477 39 26V28H37V27C37 26.4477 36.5527 26 36 26C35.4473 26 35 26.4477 35 27V28H34C33.4473 28 33 28.4478 33 29C33 29.5522 33.4473 30 34 30H35V32H33C32.4473 32 32 32.4478 32 33C32 33.5522 32.4473 34 33 34H35ZM43 36H37V30H43V36Z" fill="white"/>
<path d="M40 34C40.5523 34 41 33.5523 41 33C41 32.4477 40.5523 32 40 32C39.4477 32 39 32.4477 39 33C39 33.5523 39.4477 34 40 34Z" fill="white"/>
</svg>
