<svg width="80" height="80" viewBox="0 0 80 80" fill="none" xmlns="http://www.w3.org/2000/svg">
<circle cx="40" cy="40" r="40" fill="#403789"/>
<path d="M59 40C59 38.0288 58.1963 36.2002 56.7725 34.8843C56.9238 34.2705 57 33.6392 57 33C57 29.6016 54.8379 26.583 51.6758 25.4673C50.8018 22.8096 48.3398 21 45.5 21C43.1833 21 41.1513 22.2223 40 24.0519C38.8487 22.2223 36.8167 21 34.5 21C31.6602 21 29.1982 22.8096 28.3242 25.4673C25.1621 26.583 23 29.6016 23 33C23 33.6392 23.0762 34.2705 23.2275 34.8843C21.8037 36.2002 21 38.0288 21 40C21 41.5654 21.5186 43.0635 22.4717 44.2842C22.1582 45.1426 22 46.0527 22 47C22 50.8467 24.7275 54.1113 28.4434 54.8438C29.4033 57.3213 31.8076 59 34.5 59C36.8167 59 38.8487 57.7777 40 55.9481C41.1513 57.7777 43.1833 59 45.5 59C48.1924 59 50.5967 57.3213 51.5566 54.8438C55.2725 54.1113 58 50.8467 58 47C58 46.0527 57.8418 45.1426 57.5283 44.2842C58.4814 43.0635 59 41.5654 59 40ZM34.5 57C32.4834 57 30.7002 55.6367 30.1641 53.6856C30.0566 53.292 29.7197 53.0029 29.3145 52.957C26.2842 52.6094 24 50.0488 24 47C24 46.1201 24.1807 45.2861 24.5361 44.5215C24.709 44.1504 24.6387 43.7109 24.3574 43.4131C23.4815 42.4863 23 41.2744 23 40C23 38.4243 23.7197 36.9766 24.9736 36.0273C25.3184 35.7666 25.456 35.314 25.3164 34.9053C25.1064 34.2944 25 33.6533 25 33C25 30.3066 26.8105 27.9316 29.4023 27.2246C29.7568 27.1279 30.0303 26.8447 30.1133 26.4873C30.5938 24.4341 32.3975 23 34.5 23C36.9815 23 39 25.0185 39 27.5V28H31C29.8975 28 29 28.897 29 30V34C29 34.3659 29.106 34.7046 29.2782 35C29.106 35.2954 29 35.6341 29 36V40C29 41.1025 29.8975 42 31 42H33V46H31.8157C31.4016 44.8385 30.3019 44 29 44C27.3457 44 26 45.3457 26 47C26 48.6543 27.3457 50 29 50C30.3019 50 31.4016 49.1615 31.8157 48H34C34.5527 48 35 47.5527 35 47V42H39V45.1843C37.8385 45.5984 37 46.6981 37 48C37 49.3019 37.8385 50.4016 39 50.8157V52.5C39 54.9814 36.9815 57 34.5 57ZM49.001 40H31V36H49L49.001 40ZM40 49C39.4482 49 39 48.5518 39 48C39 47.4482 39.4482 47 40 47C40.5518 47 41 47.4482 41 48C41 48.5518 40.5518 49 40 49ZM49 34H31V30H49V34ZM30 47C30 47.5518 29.5518 48 29 48C28.4482 48 28 47.5518 28 47C28 46.4482 28.4482 46 29 46C29.5518 46 30 46.4482 30 47ZM55.4639 44.5215C55.8193 45.2861 56 46.1201 56 47C56 50.0488 53.7158 52.6094 50.6856 52.957C50.2803 53.0029 49.9434 53.292 49.8359 53.6856C49.2998 55.6367 47.5166 57 45.5 57C43.0186 57 41 54.9814 41 52.5V50.8157C42.1615 50.4016 43 49.3019 43 48C43 46.6981 42.1615 45.5984 41 45.1843V42H45V47C45 47.5527 45.4473 48 46 48H48.1843C48.5984 49.1615 49.6981 50 51 50C52.6543 50 54 48.6543 54 47C54 45.3457 52.6543 44 51 44C49.6981 44 48.5984 44.8385 48.1843 46H47V42H49C50.1025 42 51 41.1025 51 40V36C51 35.6341 50.894 35.2954 50.7218 35C50.894 34.7046 51 34.3659 51 34V30C51 28.897 50.1025 28 49 28H41V27.5C41 25.0185 43.0186 23 45.5 23C47.6025 23 49.4062 24.4341 49.8867 26.4873C49.9697 26.8447 50.2432 27.1279 50.5977 27.2246C53.1894 27.9316 55 30.3066 55 33C55 33.6533 54.8936 34.2944 54.6836 34.9053C54.5439 35.314 54.6816 35.7666 55.0264 36.0273C56.2803 36.9766 57 38.4243 57 40C57 41.2744 56.5185 42.4863 55.6426 43.4131C55.3613 43.7109 55.291 44.1504 55.4639 44.5215ZM50 47C50 46.4482 50.4482 46 51 46C51.5518 46 52 46.4482 52 47C52 47.5518 51.5518 48 51 48C50.4482 48 50 47.5518 50 47Z" fill="white"/>
<path d="M34 33C34.5523 33 35 32.5523 35 32C35 31.4477 34.5523 31 34 31C33.4477 31 33 31.4477 33 32C33 32.5523 33.4477 33 34 33Z" fill="white"/>
<path d="M38 33C38.5523 33 39 32.5523 39 32C39 31.4477 38.5523 31 38 31C37.4477 31 37 31.4477 37 32C37 32.5523 37.4477 33 38 33Z" fill="white"/>
<path d="M34 39C34.5523 39 35 38.5523 35 38C35 37.4477 34.5523 37 34 37C33.4477 37 33 37.4477 33 38C33 38.5523 33.4477 39 34 39Z" fill="white"/>
<path d="M38 39C38.5523 39 39 38.5523 39 38C39 37.4477 38.5523 37 38 37C37.4477 37 37 37.4477 37 38C37 38.5523 37.4477 39 38 39Z" fill="white"/>
</svg>
