<svg width="80" height="80" viewBox="0 0 80 80" fill="none" xmlns="http://www.w3.org/2000/svg">
<circle cx="40" cy="40" r="40" fill="#403789"/>
<path d="M28 30C28.5523 30 29 29.5523 29 29C29 28.4477 28.5523 28 28 28C27.4477 28 27 28.4477 27 29C27 29.5523 27.4477 30 28 30Z" fill="white"/>
<path d="M32 30C32.5523 30 33 29.5523 33 29C33 28.4477 32.5523 28 32 28C31.4477 28 31 28.4477 31 29C31 29.5523 31.4477 30 32 30Z" fill="white"/>
<path d="M28 42C28.5523 42 29 41.5523 29 41C29 40.4477 28.5523 40 28 40C27.4477 40 27 40.4477 27 41C27 41.5523 27.4477 42 28 42Z" fill="white"/>
<path d="M32 42C32.5523 42 33 41.5523 33 41C33 40.4477 32.5523 40 32 40C31.4477 40 31 40.4477 31 41C31 41.5523 31.4477 42 32 42Z" fill="white"/>
<path d="M57 42.73V38C57 36.9 56.1 36 55 36H54V34H55C56.1 34 57 33.1 57 32V26C57 24.9 56.1 24 55 24H25C23.9 24 23 24.9 23 26V32C23 33.1 23.9 34 25 34H26V36H25C23.9 36 23 36.9 23 38V44C23 45.1 23.9 46 25 46H43.26C43.1 46.64 43 47.31 43 48C43 52.41 46.59 56 51 56C55.41 56 59 52.41 59 48C59 45.98 58.24 44.14 57 42.73ZM25 32V26H55V32H25ZM52 34V36H28V34H52ZM25 44V38H55V41.08C53.82 40.4 52.46 40 51 40C48.05 40 45.47 41.61 44.08 44H25ZM51 54C47.69 54 45 51.31 45 48C45 44.69 47.69 42 51 42C52.68 42 54.2 42.7 55.29 43.81C55.29 43.82 55.29 43.82 55.3 43.82C56.35 44.9 57 46.37 57 48C57 51.31 54.31 54 51 54Z" fill="white"/>
<path d="M51 44C50.4478 44 50 44.4473 50 45V47H49C48.4477 47 48 47.4473 48 48C48 48.5527 48.4477 49 49 49H51C51.5522 49 52 48.5527 52 48V45C52 44.4473 51.5522 44 51 44Z" fill="white"/>
</svg>
