<svg width="80" height="80" viewBox="0 0 80 80" fill="none" xmlns="http://www.w3.org/2000/svg">
<circle cx="40" cy="40" r="40" fill="#403789"/>
<path d="M45 53H35C34.4477 53 34 53.4473 34 54C34 54.5527 34.4477 55 35 55H45C45.5522 55 46 54.5527 46 54C46 53.4473 45.5522 53 45 53Z" fill="white"/>
<path d="M45 49H35C34.4477 49 34 49.4473 34 50C34 50.5527 34.4477 51 35 51H45C45.5522 51 46 50.5527 46 50C46 49.4473 45.5522 49 45 49Z" fill="white"/>
<path d="M35 47H39C39.5522 47 40 46.5527 40 46C40 45.4473 39.5522 45 39 45H35C34.4477 45 34 45.4473 34 46C34 46.5527 34.4477 47 35 47Z" fill="white"/>
<path d="M56.3 26.14C55.83 24.34 54.08 23 52 23C49.92 23 48.17 24.34 47.7 26.14C46.17 26.35 45 27.57 45 29.06C45 30.68 46.41 32 48.14 32H51V34H40C39.45 34 39 34.45 39 35V38H36V31C36 30.45 35.55 30 35 30H31V26C31 25.45 30.55 25 30 25H29V22C29 21.45 28.55 21 28 21H24C23.45 21 23 21.45 23 22V25H22C21.45 25 21 25.45 21 26V32C21 34.76 23.24 37 26 37C28.76 37 31 34.76 31 32H34V38H31C30.45 38 30 38.45 30 39V58C30 58.55 30.45 59 31 59H49C49.55 59 50 58.55 50 58V45C50 44.73 49.89 44.48 49.71 44.29L43.71 38.29C43.52 38.11 43.27 38 43 38H41V36H52C52.55 36 53 35.55 53 35V32H55.86C57.59 32 59 30.68 59 29.06C59 27.57 57.83 26.35 56.3 26.14ZM25 23H27V25H25V23ZM29 32C29 33.65 27.65 35 26 35C24.35 35 23 33.65 23 32V27H29V32ZM44 41.41L46.59 44H44V41.41ZM42 40V45C42 45.55 42.45 46 43 46H48V57H32V40H42ZM55.86 30H48.14C47.51 30 47 29.58 47 29.06C47 28.54 47.51 28.11 48.14 28.11H48.57C49.12 28.11 49.57 27.66 49.57 27.11C49.57 25.95 50.66 25 52 25C53.34 25 54.43 25.95 54.43 27.11C54.43 27.66 54.88 28.11 55.43 28.11H55.86C56.49 28.11 57 28.54 57 29.06C57 29.58 56.49 30 55.86 30Z" fill="white"/>
</svg>
