<svg width="80" height="80" viewBox="0 0 80 80" fill="none" xmlns="http://www.w3.org/2000/svg">
<circle cx="40" cy="40" r="40" fill="#403789"/>
<path d="M58 47H51V42C51 41.4478 50.5527 41 50 41H41V39H54C55.3232 39 56.5781 38.4824 57.542 37.5322C58.4824 36.5786 59 35.3242 59 34C59 31.5205 57.1856 29.4565 54.7559 29.0664C53.8877 25.5571 50.6856 23 47 23C46.3603 23 45.7295 23.0762 45.1152 23.227C43.7988 21.8037 41.9707 21 40 21C38.4351 21 36.9365 21.5186 35.7153 22.4717C34.8579 22.1582 33.9478 22 33 22C28.8965 22 25.5044 25.1055 25.0513 29.0903C24.084 29.2768 23.1875 29.7485 22.458 30.4678C21.5176 31.4214 21 32.6758 21 34C21 36.7568 23.2432 39 26 39H39V41H30C29.4478 41 29 41.4478 29 42V46.5859L27.707 45.293C27.5195 45.1055 27.2651 45 27 45H22C21.4477 45 21 45.4478 21 46V58C21 58.5522 21.4477 59 22 59H38C38.5522 59 39 58.5522 39 58V48C39 47.4478 38.5522 47 38 47H31V43H49V46.5859L47.707 45.293C47.5195 45.1055 47.2656 45 47 45H42C41.4473 45 41 45.4478 41 46V58C41 58.5522 41.4473 59 42 59H58C58.5527 59 59 58.5522 59 58V48C59 47.4478 58.5527 47 58 47ZM26 37C24.3457 37 23 35.6543 23 34C23 33.2046 23.3135 32.4487 23.8721 31.8818C24.4487 31.3135 25.2046 31 26 31C26.5522 31 27 30.5522 27 30C27 26.6914 29.6914 24 33 24C33.8804 24 34.7139 24.1807 35.4775 24.5361C35.8472 24.709 36.2876 24.6392 36.5864 24.3569C37.5137 23.4819 38.7261 23 40 23C41.5752 23 43.0225 23.7192 43.9727 24.9736C44.2334 25.3188 44.6865 25.4565 45.0938 25.3159C45.7051 25.1065 46.3467 25 47 25C49.9668 25 52.5166 27.2095 52.9297 30.1397C52.999 30.6333 53.5019 31 54 31C55.6543 31 57 32.3457 57 34C57 34.7954 56.6865 35.5513 56.1279 36.1177C55.5508 36.6865 54.7949 37 54 37H41V34.858C42.7205 34.4108 44 32.8583 44 31C44 28.7944 42.2061 27 40 27C37.7944 27 36 28.7944 36 31C36 32.8583 37.2797 34.4107 39 34.858V37H26ZM40 33C38.897 33 38 32.103 38 31C38 29.897 38.897 29 40 29C41.1025 29 42 29.897 42 31C42 32.103 41.1025 33 40 33ZM23 57V53H37V57H23ZM37 51H23V47H26.5859L28.293 48.707C28.4805 48.8945 28.7349 49 29 49H37V51ZM46.5859 47L48.293 48.707C48.4805 48.8945 48.7344 49 49 49H57V51H43V47H46.5859ZM43 57V53H57V57H43Z" fill="white"/>
</svg>
