<svg width="68" height="68" viewBox="0 0 68 68" fill="none" xmlns="http://www.w3.org/2000/svg">
<path d="M17 26.718C8.54857 26.718 0 28.8064 0 32.7889V61.9291C0 65.9116 8.54857 68 17 68C25.4514 68 34 65.9116 34 61.9291V32.7889C34 28.8064 25.4514 26.718 17 26.718ZM31.5714 52.2157C31.5714 53.5027 26.0343 55.8582 17 55.8582C7.96571 55.8582 2.42857 53.5027 2.42857 52.2157V45.7806C5.56143 47.6261 11.305 48.5732 17 48.5732C22.695 48.5732 28.4386 47.6261 31.5714 45.7806V52.2157ZM31.5714 42.5023C31.5714 43.7893 26.0343 46.1448 17 46.1448C7.96571 46.1448 2.42857 43.7893 2.42857 42.5023V36.0672C5.56143 37.9127 11.305 38.8597 17 38.8597C22.695 38.8597 28.4386 37.9127 31.5714 36.0672V42.5023ZM17 29.1463C26.0343 29.1463 31.5714 31.5018 31.5714 32.7889C31.5714 34.0759 26.0343 36.4314 17 36.4314C7.96571 36.4314 2.42857 34.0759 2.42857 32.7889C2.42857 31.5018 7.96571 29.1463 17 29.1463ZM17 65.5716C7.96571 65.5716 2.42857 63.2161 2.42857 61.9291V55.494C5.56143 57.3395 11.305 58.2866 17 58.2866C22.695 58.2866 28.4386 57.3395 31.5714 55.494V61.9291C31.5714 63.2161 26.0343 65.5716 17 65.5716ZM66.7857 4.86278H63.6529C61.965 4.86278 60.3378 4.36497 58.9414 3.43006L54.1086 0.200339C53.6957 -0.0667798 53.1736 -0.0667798 52.7607 0.200339L47.9279 3.43006C46.5314 4.36497 44.8921 4.86278 43.2164 4.86278H40.0714C39.4036 4.86278 38.8571 5.40916 38.8571 6.07695V19.7364C38.8571 23.7432 41.0429 27.41 44.5521 29.3284L52.8457 33.8573C53.0279 33.9545 53.2221 34.003 53.4286 34.003C53.635 34.003 53.8293 33.9545 54.0114 33.8573L62.305 29.3284C65.8143 27.41 68 23.7311 68 19.7364V6.07695C68 5.40916 67.4536 4.86278 66.7857 4.86278ZM65.5714 19.7364C65.5714 22.8447 63.8714 25.7102 61.1393 27.2036L53.4286 31.4047L45.7179 27.2036C42.9857 25.7102 41.2857 22.8569 41.2857 19.7364V7.29113H43.2043C45.3657 7.29113 47.4664 6.65977 49.2636 5.45773L53.4286 2.67725L57.5936 5.45773C59.3907 6.65977 61.4914 7.29113 63.6529 7.29113H65.5714V19.7364ZM54.6429 17.1745V12.1478H55.8571C56.525 12.1478 57.0714 11.6015 57.0714 10.9337C57.0714 10.2659 56.525 9.71949 55.8571 9.71949H54.6429V8.50531C54.6429 7.83751 54.0964 7.29113 53.4286 7.29113C52.7607 7.29113 52.2143 7.83751 52.2143 8.50531V17.1745C50.1257 17.7209 48.5714 19.6029 48.5714 21.8613C48.5714 24.5446 50.745 26.718 53.4286 26.718C56.1121 26.718 58.2857 24.5446 58.2857 21.8613C58.2857 19.6029 56.7314 17.7209 54.6429 17.1745ZM53.4286 24.2896C52.0929 24.2896 51 23.1969 51 21.8613C51 20.5257 52.0929 19.4329 53.4286 19.4329C54.7643 19.4329 55.8571 20.5257 55.8571 21.8613C55.8571 23.1969 54.7643 24.2896 53.4286 24.2896ZM35.2143 13.362H17C14.9964 13.362 13.3571 15.0012 13.3571 17.0045V17.2231C11.9486 17.7209 10.9286 19.0565 10.9286 20.6471C10.9286 22.6505 12.5679 24.2896 14.5714 24.2896C16.575 24.2896 18.2143 22.6505 18.2143 20.6471C18.2143 19.0687 17.1943 17.733 15.7857 17.2231V17.0045C15.7857 16.3368 16.3321 15.7904 17 15.7904H35.2143C35.8821 15.7904 36.4286 15.244 36.4286 14.5762C36.4286 13.9084 35.8821 13.362 35.2143 13.362ZM14.5714 21.8613C13.9036 21.8613 13.3571 21.3149 13.3571 20.6471C13.3571 19.9793 13.9036 19.4329 14.5714 19.4329C15.2393 19.4329 15.7857 19.9793 15.7857 20.6471C15.7857 21.3149 15.2393 21.8613 14.5714 21.8613ZM53.4286 42.5023C51.425 42.5023 49.7857 44.1414 49.7857 46.1448C49.7857 47.7232 50.8057 49.0588 52.2143 49.5688V51.0015C52.2143 51.6693 51.6679 52.2157 51 52.2157H37.6429C36.975 52.2157 36.4286 52.7621 36.4286 53.4299C36.4286 54.0977 36.975 54.644 37.6429 54.644H51C53.0036 54.644 54.6429 53.0049 54.6429 51.0015V49.5688C56.0514 49.071 57.0714 47.7354 57.0714 46.1448C57.0714 44.1414 55.4321 42.5023 53.4286 42.5023ZM53.4286 47.359C52.7607 47.359 52.2143 46.8126 52.2143 46.1448C52.2143 45.477 52.7607 44.9306 53.4286 44.9306C54.0964 44.9306 54.6429 45.477 54.6429 46.1448C54.6429 46.8126 54.0964 47.359 53.4286 47.359Z" fill="#333333"/>
</svg>
