<svg width="68" height="68" viewBox="0 0 68 68" fill="none" xmlns="http://www.w3.org/2000/svg">
<path d="M32.9319 61.7463C33.6119 61.9892 34.3648 62.0013 35.0569 61.7463C52.409 55.5899 51.3891 37.0842 50.6605 31.5592C50.4783 30.1385 49.3612 29.0092 47.9405 28.827C41.8326 28.0135 37.8741 25.342 36.0526 23.8242C34.8626 22.8285 33.1262 22.8285 31.9241 23.8242C30.1026 25.342 26.1319 28.0135 20.0362 28.827C18.6276 29.0092 17.5105 30.1385 17.3162 31.5592C16.5998 37.0842 15.5798 55.5899 32.9319 61.7463ZM19.7326 31.8749C19.7812 31.5349 20.0362 31.2677 20.364 31.2313C27.079 30.3449 31.4747 27.382 33.4905 25.6942C33.794 25.4392 34.2069 25.4392 34.5105 25.6942C36.5384 27.382 40.9341 30.3449 47.6369 31.2313C47.9648 31.2799 48.2198 31.5349 48.2683 31.8749C48.9362 36.9385 49.8955 53.9142 34.2555 59.4635C34.0976 59.5242 33.9033 59.5242 33.7455 59.4635C18.1055 53.9142 19.0648 36.9385 19.7326 31.8749Z" fill="#333333"/>
<path d="M31.9103 44.868C30.5139 45.6694 31.7281 47.7702 33.1124 46.9809C33.6467 46.6773 34.351 46.6773 34.8853 46.9809C35.4682 47.3209 36.2089 47.1144 36.5489 46.5316C37.6053 44.6616 33.9867 43.678 31.9103 44.868Z" fill="#333333"/>
<path d="M38.0809 41.5651C35.6159 40.1687 32.386 40.1687 29.921 41.5651C28.5246 42.3544 29.7145 44.4673 31.111 43.678C32.8595 42.6944 35.1424 42.6944 36.8788 43.678C38.2874 44.4673 39.4774 42.3544 38.0809 41.5651Z" fill="#333333"/>
<path d="M29.1301 40.3751C32.0565 38.7115 35.9301 38.7115 38.8565 40.3751C40.2529 41.1765 41.4551 39.0637 40.0586 38.2622C36.4036 36.1737 31.5829 36.1737 27.9279 38.2622C27.3451 38.5901 27.1387 39.3308 27.4787 39.9137C27.8065 40.5087 28.5472 40.7029 29.1301 40.3751Z" fill="#333333"/>
<path d="M34.001 52.4814C40.1089 52.4814 45.0753 47.6485 45.0753 41.7107C45.0753 35.7728 40.1089 30.9399 34.001 30.9399C27.8932 30.9399 22.9268 35.7728 22.9268 41.7107C22.9268 47.6485 27.8932 52.4814 34.001 52.4814ZM34.001 33.3685C38.7732 33.3685 42.6467 37.1085 42.6467 41.7107C42.6467 46.3128 38.761 50.0528 34.001 50.0528C29.241 50.0528 25.3553 46.3128 25.3553 41.7107C25.3553 37.1085 29.2289 33.3685 34.001 33.3685Z" fill="#333333"/>
<path d="M61.9286 0H6.07143C2.72 0 0 2.72 0 6.07143V13.3571C0 15.8464 1.50571 17.9714 3.64286 18.9186V61.9286C3.64286 65.28 6.36286 68 9.71429 68H58.2857C61.6371 68 64.3571 65.28 64.3571 61.9286V18.9186C66.4943 17.9836 68 15.8464 68 13.3571V6.07143C68 2.72 65.28 0 61.9286 0ZM61.9286 61.9286C61.9286 63.9321 60.2893 65.5714 58.2857 65.5714H9.71429C7.71071 65.5714 6.07143 63.9321 6.07143 61.9286V19.4286H61.9286V61.9286ZM65.5714 13.3571C65.5714 15.3607 63.9321 17 61.9286 17H6.07143C4.06786 17 2.42857 15.3607 2.42857 13.3571V6.07143C2.42857 4.06786 4.06786 2.42857 6.07143 2.42857H61.9286C63.9321 2.42857 65.5714 4.06786 65.5714 6.07143V13.3571Z" fill="#333333"/>
<path d="M12.1428 4.85718C9.45922 4.85718 7.28564 7.03075 7.28564 9.71432C7.28564 12.3979 9.45922 14.5715 12.1428 14.5715C14.8264 14.5715 16.9999 12.3979 16.9999 9.71432C16.9999 7.03075 14.8264 4.85718 12.1428 4.85718ZM12.1428 12.1429C10.8071 12.1429 9.71422 11.05 9.71422 9.71432C9.71422 8.37861 10.8071 7.28575 12.1428 7.28575C13.4785 7.28575 14.5714 8.37861 14.5714 9.71432C14.5714 11.05 13.4785 12.1429 12.1428 12.1429Z" fill="#333333"/>
<path d="M24.2859 4.85718C21.6023 4.85718 19.4287 7.03075 19.4287 9.71432C19.4287 12.3979 21.6023 14.5715 24.2859 14.5715C26.9694 14.5715 29.143 12.3979 29.143 9.71432C29.143 7.03075 26.9694 4.85718 24.2859 4.85718ZM24.2859 12.1429C22.9501 12.1429 21.8573 11.05 21.8573 9.71432C21.8573 8.37861 22.9501 7.28575 24.2859 7.28575C25.6216 7.28575 26.7144 8.37861 26.7144 9.71432C26.7144 11.05 25.6216 12.1429 24.2859 12.1429Z" fill="#333333"/>
<path d="M36.4284 4.85718C33.7449 4.85718 31.5713 7.03075 31.5713 9.71432C31.5713 12.3979 33.7449 14.5715 36.4284 14.5715C39.112 14.5715 41.2856 12.3979 41.2856 9.71432C41.2856 7.03075 39.112 4.85718 36.4284 4.85718ZM36.4284 12.1429C35.0927 12.1429 33.9999 11.05 33.9999 9.71432C33.9999 8.37861 35.0927 7.28575 36.4284 7.28575C37.7641 7.28575 38.857 8.37861 38.857 9.71432C38.857 11.05 37.7641 12.1429 36.4284 12.1429Z" fill="#333333"/>
</svg>
