<svg width="68" height="68" viewBox="0 0 68 68" fill="none" xmlns="http://www.w3.org/2000/svg">
<path d="M48.5714 20.6429H44.965C42.8036 20.6429 40.7029 20.0114 38.9057 18.8093L34.68 15.9921C34.2671 15.725 33.745 15.725 33.3322 15.9921L29.1064 18.8093C27.3093 20.0114 25.2086 20.6429 23.0471 20.6429H19.4286C18.7607 20.6429 18.2143 21.1893 18.2143 21.8571V34.7893C18.2143 39.27 20.4364 43.4228 24.1643 45.9L33.3322 52.0078C33.5386 52.1414 33.7693 52.2143 34 52.2143C34.2307 52.2143 34.4736 52.1414 34.6678 52.0078L43.8357 45.9C47.5636 43.4228 49.7857 39.2579 49.7857 34.7893V21.8571C49.7857 21.1893 49.2393 20.6429 48.5714 20.6429ZM47.3571 34.7893C47.3571 38.4564 45.5357 41.8564 42.4878 43.8843L34 49.5428L25.5122 43.8843C22.4643 41.8564 20.6429 38.4564 20.6429 34.7893V23.0714H23.035C25.6821 23.0714 28.2443 22.2943 30.4422 20.825L34 18.4572L37.5578 20.825C39.7557 22.2943 42.3179 23.0714 44.965 23.0714H47.3571V34.7893ZM34 24.2857C29.9807 24.2857 26.7143 27.5521 26.7143 31.5714C26.7143 35.1779 29.3493 38.165 32.7857 38.7479V42.5C32.7857 43.1679 33.3321 43.7143 34 43.7143C34.6679 43.7143 35.2143 43.1679 35.2143 42.5V38.7479C38.6507 38.165 41.2857 35.1779 41.2857 31.5714C41.2857 27.5521 38.0193 24.2857 34 24.2857ZM35.2143 36.2586V31.5714C35.2143 30.9036 34.6679 30.3571 34 30.3571C33.3321 30.3571 32.7857 30.9036 32.7857 31.5714V36.2586C30.6971 35.7121 29.1429 33.83 29.1429 31.5714C29.1429 28.8879 31.3164 26.7143 34 26.7143C36.6836 26.7143 38.8571 28.8879 38.8571 31.5714C38.8571 33.83 37.3029 35.7121 35.2143 36.2586ZM32.7857 7.06715V13.3571C32.7857 14.025 33.3321 14.5714 34 14.5714C34.6679 14.5714 35.2143 14.025 35.2143 13.3571V7.06715C36.6229 6.56929 37.6429 5.23357 37.6429 3.64286C37.6429 1.63929 36.0036 0 34 0C31.9964 0 30.3571 1.63929 30.3571 3.64286C30.3571 5.22143 31.3771 6.55715 32.7857 7.06715ZM34 2.42857C34.6679 2.42857 35.2143 2.975 35.2143 3.64286C35.2143 4.31071 34.6679 4.85714 34 4.85714C33.3321 4.85714 32.7857 4.31071 32.7857 3.64286C32.7857 2.975 33.3321 2.42857 34 2.42857ZM37.6429 10.7221V13.3571C37.6429 14.025 38.1893 14.5714 38.8571 14.5714C39.525 14.5714 40.0714 14.025 40.0714 13.3571V10.7221C40.0714 10.3943 40.205 10.0907 40.4357 9.85999L42.16 8.13571C42.6336 8.36642 43.1557 8.5 43.7264 8.5C45.73 8.5 47.3693 6.86071 47.3693 4.85714C47.3693 2.85357 45.73 1.21429 43.7264 1.21429C41.7229 1.21429 40.0836 2.85357 40.0836 4.85714C40.0836 5.41571 40.2171 5.93785 40.4479 6.42356L38.7236 8.14787C38.0193 8.82787 37.6429 9.75072 37.6429 10.7221ZM43.7143 3.64286C44.3821 3.64286 44.9286 4.18929 44.9286 4.85714C44.9286 5.525 44.3821 6.07143 43.7143 6.07143C43.3864 6.07143 43.0828 5.93787 42.8643 5.71929C42.8643 5.71929 42.8643 5.70714 42.8522 5.70714C42.84 5.70714 42.84 5.70715 42.84 5.695C42.6214 5.47643 42.4878 5.18501 42.4878 4.84501C42.5 4.18929 43.0464 3.64286 43.7143 3.64286ZM24.2857 8.5C24.8443 8.5 25.3664 8.36642 25.8522 8.13571L27.5764 9.85999C27.8071 10.0907 27.9407 10.3943 27.9407 10.7221V13.3571C27.9407 14.025 28.4872 14.5714 29.155 14.5714C29.8229 14.5714 30.3693 14.025 30.3693 13.3571V10.7221C30.3693 9.75072 29.9929 8.82785 29.3007 8.13571L27.5764 6.41143C27.8071 5.93786 27.9407 5.41572 27.9407 4.84501C27.9407 2.84144 26.3014 1.20215 24.2979 1.20215C22.2943 1.20215 20.655 2.84144 20.655 4.84501C20.655 6.84858 22.2821 8.5 24.2857 8.5ZM24.2857 3.64286C24.9536 3.64286 25.5 4.18929 25.5 4.85714C25.5 5.185 25.3664 5.48857 25.1478 5.70714C25.1478 5.70714 25.1357 5.70715 25.1357 5.71929C25.1357 5.73144 25.1357 5.73143 25.1236 5.73143C24.905 5.95 24.6136 6.08356 24.2736 6.08356C23.6057 6.08356 23.0593 5.53714 23.0593 4.86928C23.0593 4.20142 23.6179 3.64286 24.2857 3.64286ZM35.2143 60.9328V54.6429C35.2143 53.975 34.6679 53.4286 34 53.4286C33.3321 53.4286 32.7857 53.975 32.7857 54.6429V60.9328C31.3771 61.4307 30.3571 62.7664 30.3571 64.3571C30.3571 66.3607 31.9964 68 34 68C36.0036 68 37.6429 66.3607 37.6429 64.3571C37.6429 62.7786 36.6229 61.4428 35.2143 60.9328ZM34 65.5714C33.3321 65.5714 32.7857 65.025 32.7857 64.3571C32.7857 63.6893 33.3321 63.1429 34 63.1429C34.6679 63.1429 35.2143 63.6893 35.2143 64.3571C35.2143 65.025 34.6679 65.5714 34 65.5714ZM30.3571 57.2779V54.6429C30.3571 53.975 29.8107 53.4286 29.1429 53.4286C28.475 53.4286 27.9286 53.975 27.9286 54.6429V57.2779C27.9286 57.6057 27.795 57.9093 27.5643 58.14L25.84 59.8643C25.3664 59.6336 24.8443 59.5 24.2736 59.5C22.27 59.5 20.6307 61.1393 20.6307 63.1429C20.6307 65.1464 22.27 66.7857 24.2736 66.7857C26.2771 66.7857 27.9164 65.1464 27.9164 63.1429C27.9164 62.5843 27.7829 62.0621 27.5521 61.5764L29.2764 59.8522C29.9807 59.1722 30.3571 58.2493 30.3571 57.2779ZM24.2857 64.3571C23.6179 64.3571 23.0714 63.8107 23.0714 63.1429C23.0714 62.475 23.6179 61.9286 24.2857 61.9286C24.6136 61.9286 24.9172 62.0622 25.1357 62.2807C25.1357 62.2807 25.1357 62.2928 25.1478 62.2928C25.16 62.2928 25.16 62.2929 25.16 62.305C25.3786 62.5236 25.5122 62.815 25.5122 63.155C25.5 63.8107 24.9536 64.3571 24.2857 64.3571ZM43.7143 59.5C43.1557 59.5 42.6336 59.6336 42.1478 59.8643L40.4236 58.14C40.1929 57.9093 40.0593 57.6057 40.0593 57.2779V54.6429C40.0593 53.975 39.5128 53.4286 38.845 53.4286C38.1771 53.4286 37.6307 53.975 37.6307 54.6429V57.2779C37.6307 58.2493 38.0071 59.1721 38.6993 59.8643L40.4236 61.5886C40.1929 62.0621 40.0593 62.5843 40.0593 63.155C40.0593 65.1586 41.6986 66.7979 43.7021 66.7979C45.7057 66.7979 47.345 65.1586 47.345 63.155C47.345 61.1514 45.7179 59.5 43.7143 59.5ZM43.7143 64.3571C43.0464 64.3571 42.5 63.8107 42.5 63.1429C42.5 62.815 42.6336 62.5114 42.8522 62.2928C42.8522 62.2928 42.8643 62.2929 42.8643 62.2807C42.8643 62.2686 42.8643 62.2686 42.8764 62.2686C43.095 62.05 43.3864 61.9164 43.7264 61.9164C44.3943 61.9164 44.9407 62.4628 44.9407 63.1307C44.9407 63.7986 44.3821 64.3571 43.7143 64.3571ZM11.6814 56.3186C12.155 56.7921 12.155 57.5572 11.6814 58.0307C11.4386 58.2736 11.135 58.3828 10.8193 58.3828C10.5036 58.3828 10.2 58.2614 9.95714 58.0307C3.53357 51.6072 0 43.0707 0 33.9878C0 24.905 3.53357 16.3686 9.95714 9.945C10.4307 9.47143 11.1957 9.47143 11.6693 9.945C12.1429 10.4186 12.1429 11.1836 11.6693 11.6572C5.70714 17.6436 2.42857 25.5729 2.42857 34C2.42857 42.4271 5.70714 50.3564 11.6814 56.3186ZM68 34C68 43.0829 64.4664 51.6193 58.0428 58.0428C57.8 58.2857 57.4964 58.395 57.1807 58.395C56.865 58.395 56.5614 58.2736 56.3186 58.0428C55.845 57.5693 55.845 56.8043 56.3186 56.3307C62.2807 50.3686 65.5714 42.4393 65.5714 34.0122C65.5714 25.585 62.2929 17.6557 56.3186 11.6936C55.845 11.22 55.845 10.455 56.3186 9.98143C56.7921 9.50786 57.5572 9.50786 58.0307 9.98143C64.4664 16.3807 68 24.9171 68 34ZM16.83 16.83C12.24 21.42 9.71429 27.5157 9.71429 34C9.71429 40.4843 12.24 46.58 16.83 51.17C17.3036 51.6436 17.3036 52.4086 16.83 52.8821C16.5871 53.125 16.2836 53.2343 15.9678 53.2343C15.6521 53.2343 15.3486 53.1128 15.1057 52.8821C10.0543 47.8307 7.28571 41.1278 7.28571 33.9878C7.28571 26.8478 10.0664 20.145 15.1057 15.0936C15.5793 14.62 16.3443 14.62 16.8179 15.0936C17.2914 15.5671 17.3036 16.3564 16.83 16.83ZM60.7143 34C60.7143 41.14 57.9336 47.8429 52.8943 52.8943C52.6514 53.1371 52.3479 53.2464 52.0322 53.2464C51.7164 53.2464 51.4129 53.125 51.17 52.8943C50.6964 52.4207 50.6964 51.6557 51.17 51.1821C55.76 46.5921 58.2857 40.4964 58.2857 34.0122C58.2857 27.5279 55.76 21.4321 51.17 16.8421C50.6964 16.3686 50.6964 15.6036 51.17 15.13C51.6436 14.6564 52.4086 14.6564 52.8821 15.13C57.9336 20.1572 60.7143 26.86 60.7143 34Z" fill="#333333"/>
</svg>
