<svg width="56" height="56" viewBox="0 0 56 56" fill="none" xmlns="http://www.w3.org/2000/svg">
<path d="M51 0H5C2.24 0 0 2.24 0 5V33C0 35.76 2.24 38 5 38H21V46C14.47 46 15.74 45.27 11.99 51.44C10.78 53.44 12.21 56 14.55 56H41.44C43.78 56 45.22 53.44 44 51.44C40.26 45.28 41.53 46 34.99 46V38H50.99C53.75 38 55.99 35.76 55.99 33V5C56 2.24 53.76 0 51 0ZM39.02 48C39.77 48 39.7 48.19 42.3 52.48C42.7 53.15 42.23 54 41.45 54H14.56C14.03 54 13.77 53.64 13.69 53.49C13.31 52.81 13.53 52.77 16.14 48.48C16.58 47.73 16.13 48 39.02 48ZM23 46V38H33V46H23ZM54 33C54 34.65 52.65 36 51 36H5C3.35 36 2 34.65 2 33V30H54V33ZM54 28H2V5C2 3.35 3.35 2 5 2H51C52.65 2 54 3.35 54 5V28Z" fill="#333333"/>
<path d="M20.9998 34H34.9998C36.3198 34 36.3198 32 34.9998 32H20.9998C19.6798 32 19.6798 34 20.9998 34Z" fill="#333333"/>
<path d="M22.0001 5H8.00014C6.29014 5 4.93014 6.42 5.00014 8.12C5.17014 12.22 6.43015 22.04 14.5501 24.9C14.8301 25.03 15.1501 25.03 15.4201 24.91C23.5601 22.05 24.8302 12.23 24.9902 8.12C25.0702 6.41 23.7101 5 22.0001 5ZM23.0001 8.04C22.8501 11.69 21.7701 20.37 15.0001 22.93C8.23014 20.36 7.15014 11.69 7.00014 8.03C6.98014 7.46 7.43014 6.99 8.00014 6.99H22.0001C22.3501 7 23.0001 7.25 23.0001 8.04Z" fill="#333333"/>
<path d="M19.3599 11.23L14.0699 15.64L11.7199 13.29C10.7899 12.35 9.36989 13.77 10.2999 14.7C13.4099 17.81 13.4199 17.99 13.9999 17.99C14.5199 17.99 14.2099 18.12 20.6299 12.76C21.6599 11.92 20.3799 10.38 19.3599 11.23Z" fill="#333333"/>
<path d="M40 5C34.49 5 30 9.49 30 15C30 20.51 34.49 25 40 25C45.51 25 50 20.51 50 15C50 9.49 45.51 5 40 5ZM40 7C40.36 7 41.21 8.39 41.68 11.05C40.53 10.98 39.48 10.98 38.32 11.05C38.79 8.39 39.64 7 40 7ZM32 15C32 14.64 33.39 13.79 36.05 13.32C35.98 14.47 35.98 15.52 36.05 16.68C33.39 16.21 32 15.36 32 15ZM32.5 17.76C33.55 18.21 34.86 18.53 36.26 18.73C36.46 20.13 36.78 21.44 37.23 22.49C35.05 21.69 33.31 19.95 32.5 17.76ZM36.26 11.26C34.86 11.46 33.55 11.78 32.5 12.23C33.31 10.04 35.05 8.31 37.23 7.5C36.79 8.55 36.46 9.86 36.26 11.26ZM40 23C39.64 23 38.79 21.61 38.32 18.95C39.47 19.02 40.52 19.02 41.68 18.95C41.21 21.61 40.36 23 40 23ZM41.93 16.93C40.66 17.03 39.34 17.03 38.07 16.93C37.97 15.66 37.97 14.34 38.07 13.07C39.34 12.97 40.66 12.97 41.93 13.07C42.02 14.34 42.02 15.66 41.93 16.93ZM42.76 22.5C43.21 21.45 43.53 20.14 43.73 18.74C45.13 18.54 46.44 18.22 47.49 17.77C46.69 19.95 44.95 21.69 42.76 22.5ZM48 15C48 15.36 46.61 16.21 43.95 16.68C44.02 15.53 44.02 14.48 43.95 13.32C46.61 13.79 48 14.64 48 15ZM43.74 11.26C43.54 9.86 43.22 8.55 42.77 7.5C44.96 8.31 46.69 10.05 47.5 12.23C46.45 11.79 45.14 11.46 43.74 11.26Z" fill="#333333"/>
</svg>
