<svg width="68" height="68" viewBox="0 0 68 68" fill="none" xmlns="http://www.w3.org/2000/svg">
<path d="M43.7008 24.4801C39.5601 23.9579 36.8765 22.2093 35.6501 21.2258C34.6908 20.4608 33.3065 20.4486 32.3472 21.2258C31.1208 22.2093 28.4372 23.9579 24.2965 24.4801C23.1551 24.6258 22.2444 25.5122 22.0865 26.6415C21.5765 30.4058 20.8479 43.0101 33.1486 47.2115C33.6829 47.3936 34.2901 47.4058 34.8486 47.2115C47.1494 43.0101 46.4208 30.4058 45.9108 26.6415C45.7529 25.5122 44.8544 24.6258 43.7008 24.4801ZM34.0594 44.9165C34.0229 44.9286 33.9622 44.9286 33.9258 44.9165C23.3858 41.31 24.0294 30.2722 24.4786 26.9693C24.5272 26.6293 29.2508 26.8115 33.8529 23.1079C33.9258 23.0472 34.0472 23.0472 34.1079 23.1079C37.0829 25.5 41.6001 26.8843 43.3729 26.8843C43.4336 26.8965 43.4701 26.9329 43.4822 26.9693C43.9558 30.2722 44.6115 41.3222 34.0594 44.9165Z" fill="#333333"/>
<path d="M32.0928 37.4851C30.6842 38.2623 31.8621 40.3873 33.2585 39.6101C34.2057 39.088 34.7157 39.7558 35.3228 39.7558C35.7478 39.7558 36.1728 39.5251 36.3914 39.1244C37.3507 37.3758 34.1449 36.3558 32.0928 37.4851Z" fill="#333333"/>
<path d="M37.6796 33.15C35.4575 31.9357 32.5554 31.9357 30.3332 33.15C28.9246 33.915 30.0782 36.0521 31.4989 35.2871C33.0168 34.4614 35.0082 34.4614 36.5261 35.2871C37.1211 35.6028 37.8496 35.3843 38.1775 34.8014C38.4811 34.2064 38.2625 33.4657 37.6796 33.15Z" fill="#333333"/>
<path d="M39.4387 28.8271C36.1601 27.03 31.8373 27.03 28.5587 28.8271C27.1501 29.6042 28.3158 31.7292 29.7244 30.9521C32.2866 29.5435 35.7108 29.5435 38.273 30.9521C38.868 31.28 39.5966 31.0493 39.9244 30.4786C40.2401 29.8836 40.0337 29.1428 39.4387 28.8271Z" fill="#333333"/>
<path d="M64.3571 26.7143H57.5693L41.2857 10.4307V3.64286C41.2857 1.63929 39.6464 0 37.6429 0H30.3571C28.3536 0 26.7143 1.63929 26.7143 3.64286V10.4307L10.4307 26.7143H3.64286C1.63929 26.7143 0 28.3536 0 30.3571V37.6429C0 39.6464 1.63929 41.2857 3.64286 41.2857H10.4307L26.7143 57.5693V64.3571C26.7143 66.3607 28.3536 68 30.3571 68H37.6429C39.6464 68 41.2857 66.3607 41.2857 64.3571V57.5693L57.5693 41.2857H64.3571C66.3607 41.2857 68 39.6464 68 37.6429V30.3571C68 28.3536 66.3607 26.7143 64.3571 26.7143ZM29.1429 3.64286C29.1429 2.975 29.6893 2.42857 30.3571 2.42857H37.6429C38.3107 2.42857 38.8571 2.975 38.8571 3.64286V10.9286C38.8571 11.5964 38.3107 12.1429 37.6429 12.1429H30.3571C29.6893 12.1429 29.1429 11.5964 29.1429 10.9286V3.64286ZM12.1429 37.6429C12.1429 38.3107 11.5964 38.8571 10.9286 38.8571H3.64286C2.975 38.8571 2.42857 38.3107 2.42857 37.6429V30.3571C2.42857 29.6893 2.975 29.1429 3.64286 29.1429H10.9286C11.5964 29.1429 12.1429 29.6893 12.1429 30.3571V37.6429ZM38.8571 64.3571C38.8571 65.025 38.3107 65.5714 37.6429 65.5714H30.3571C29.6893 65.5714 29.1429 65.025 29.1429 64.3571V57.0714C29.1429 56.4036 29.6893 55.8571 30.3571 55.8571H37.6429C38.3107 55.8571 38.8571 56.4036 38.8571 57.0714V64.3571ZM54.8857 40.545L40.545 54.8857C39.8771 54.0114 38.8329 53.4286 37.6429 53.4286H30.3571C29.1671 53.4286 28.1229 54.0114 27.455 54.8857L13.1143 40.545C13.9886 39.8772 14.5714 38.8329 14.5714 37.6429V30.3571C14.5714 29.1671 13.9886 28.1228 13.1143 27.455L27.4671 13.1022C28.135 13.9764 29.1793 14.5593 30.3693 14.5593H37.655C38.845 14.5593 39.8893 13.9764 40.5571 13.1022L54.91 27.455C54.0357 28.1228 53.4529 29.1671 53.4529 30.3571V37.6429C53.4286 38.8329 54.0114 39.8772 54.8857 40.545ZM65.5714 37.6429C65.5714 38.3107 65.025 38.8571 64.3571 38.8571H57.0714C56.4036 38.8571 55.8571 38.3107 55.8571 37.6429V30.3571C55.8571 29.6893 56.4036 29.1429 57.0714 29.1429H64.3571C65.025 29.1429 65.5714 29.6893 65.5714 30.3571V37.6429Z" fill="#333333"/>
</svg>
