<svg width="68" height="68" viewBox="0 0 68 68" fill="none" xmlns="http://www.w3.org/2000/svg">
<path d="M31.5759 26.1137C30.1793 26.9031 31.3573 29.0162 32.7661 28.239C33.5069 27.826 34.5148 27.826 35.2435 28.239C35.8386 28.5669 36.5673 28.3483 36.8952 27.7653C38.0003 25.8101 33.9076 24.8142 31.5759 26.1137Z" fill="#333333"/>
<path d="M38.8748 22.1424C35.9237 20.515 32.0739 20.515 29.1228 22.1424C27.714 22.9196 28.8799 25.0449 30.2886 24.2677C32.5232 23.0411 35.4622 23.0411 37.6968 24.2677C39.1177 25.0449 40.2835 22.9196 38.8748 22.1424Z" fill="#333333"/>
<path d="M27.8716 20.3087C31.5514 18.2563 36.4577 18.2563 40.1496 20.3087C41.5584 21.0859 42.7364 18.9728 41.3277 18.1834C36.9192 15.7302 31.0899 15.7302 26.6936 18.1834C25.2848 18.9728 26.4628 21.0859 27.8716 20.3087Z" fill="#333333"/>
<path d="M34.0044 34.809C41.3761 34.809 47.3634 29.1132 47.3634 22.118C47.3634 15.1228 41.3761 9.427 34.0044 9.427C26.6327 9.427 20.6455 15.1228 20.6455 22.118C20.6455 29.1132 26.6327 34.809 34.0044 34.809ZM34.0044 11.8559C40.0281 11.8559 44.9345 16.4587 44.9345 22.118C44.9345 27.7773 40.0281 32.3801 34.0044 32.3801C27.9808 32.3801 23.0744 27.7773 23.0744 22.118C23.0744 16.4587 27.9808 11.8559 34.0044 11.8559Z" fill="#333333"/>
<path d="M61.9369 16.9932H54.638C54.6987 14.0299 54.468 11.5403 54.2494 9.96151C54.0308 8.35844 52.7556 7.09541 51.1404 6.88896C43.5501 5.90525 38.6194 2.67482 36.3484 0.828861C34.9882 -0.276287 33.0087 -0.276287 31.6485 0.828861C29.3775 2.67482 24.4469 5.9174 16.8565 6.88896C15.2413 7.09541 13.9662 8.35844 13.7476 9.96151C13.529 11.5524 13.2982 14.0421 13.3589 16.9932H6.07224C2.72036 16.9932 0 19.7135 0 23.0654V61.9278C0 65.2796 2.72036 68 6.07224 68H61.9369C65.2887 68 68.0091 65.2796 68.0091 61.9278V23.0654C68.0091 19.7135 65.2887 16.9932 61.9369 16.9932ZM16.1643 10.2894C16.2372 9.77935 16.6501 9.36643 17.1723 9.30571C25.3577 8.24914 30.7255 4.72724 33.1909 2.7234C33.6645 2.33477 34.3568 2.34692 34.8183 2.7234C37.2836 4.72724 42.6393 8.24914 50.8368 9.30571C51.359 9.37857 51.7719 9.77935 51.8448 10.2894C52.6706 16.4102 53.8608 36.9223 34.4175 43.6503C34.1503 43.7353 33.8467 43.7353 33.5916 43.6503C14.1605 36.9223 15.3385 16.4102 16.1643 10.2894ZM2.4289 23.0654C2.4289 21.0616 4.0684 19.4221 6.07224 19.4221H13.4925C13.8083 23.5633 14.7677 28.3361 17.0873 32.781H2.4289V23.0654ZM2.4289 35.2099H9.71559V49.7833H2.4289V35.2099ZM19.4312 65.5711H6.07224C4.0684 65.5711 2.4289 63.9316 2.4289 61.9278V52.2122H19.4312V65.5711ZM12.1445 49.7833V35.2099H18.5203C21.4472 39.6426 25.9406 43.5653 32.7901 45.9335V49.7833H12.1445ZM46.149 65.5711H21.8601V52.2122H46.149V65.5711ZM35.219 49.7833V45.9335C42.0685 43.5653 46.5619 39.6426 49.4888 35.2099H55.8646V49.7833H35.219ZM65.5802 61.9278C65.5802 63.9316 63.9407 65.5711 61.9369 65.5711H48.5779V52.2122H65.5802V61.9278ZM65.5802 49.7833H58.2935V35.2099H65.5802V49.7833ZM65.5802 32.781H50.9218C53.2414 28.3361 54.2008 23.5633 54.5166 19.4221H61.9369C63.9407 19.4221 65.5802 21.0616 65.5802 23.0654V32.781Z" fill="#333333"/>
</svg>
