<svg width="68" height="68" viewBox="0 0 68 68" fill="none" xmlns="http://www.w3.org/2000/svg">
<path d="M67.6236 33.7571C67.4171 32.215 66.1907 31.0007 64.6486 30.7943C63.2279 30.6121 61.9407 30.3207 60.7143 29.9929V25.5C60.7143 23.5086 59.7307 21.7479 58.2493 20.6429C59.7429 19.5379 60.7143 17.7771 60.7143 15.7857V6.07143C60.7143 2.72 57.9943 0 54.6429 0H6.07143C2.72 0 0 2.72 0 6.07143V15.7857C0 17.7771 0.98357 19.5379 2.465 20.6429C0.971427 21.7479 0 23.5086 0 25.5V35.2143C0 37.2057 0.98357 38.9664 2.465 40.0714C0.971427 41.1764 0 42.9371 0 44.9286V54.6429C0 57.9943 2.72 60.7143 6.07143 60.7143H36.3679C40.5329 65.28 46.7621 68 48.5714 68C48.96 68 49.3607 67.9393 49.7371 67.8057C69.6393 60.8721 68.4614 39.9864 67.6236 33.7571ZM2.42857 15.7857V6.07143C2.42857 4.06786 4.06786 2.42857 6.07143 2.42857H54.6429C56.6464 2.42857 58.2857 4.06786 58.2857 6.07143V15.7857C58.2857 17.7893 56.6464 19.4286 54.6429 19.4286H6.07143C4.06786 19.4286 2.42857 17.7893 2.42857 15.7857ZM2.42857 35.2143V25.5C2.42857 23.4964 4.06786 21.8571 6.07143 21.8571H54.6429C56.6464 21.8571 58.2857 23.4964 58.2857 25.5V29.24C54.7279 27.9407 52.2264 26.2286 50.83 25.0871C49.5186 24.0186 47.6243 24.0186 46.325 25.0871C45.8757 25.4636 45.2807 25.9007 44.5886 26.3622H25.8521C20.9829 26.3622 20.9829 34.3521 25.8521 34.3521H29.4464C29.3129 35.5178 29.1793 37.0721 29.155 38.8571H6.07143C4.06786 38.8571 2.42857 37.2179 2.42857 35.2143ZM30.3814 31.9236H25.8521C25.1843 31.9236 24.6379 31.3771 24.6379 30.7093V30.005C24.6379 29.3372 25.1843 28.7907 25.8521 28.7907H40.0107C37.9221 29.665 35.4329 30.4179 32.4821 30.7943C31.6564 30.9036 30.9157 31.3286 30.3814 31.9236ZM30.9643 51.3521H25.8521C25.1843 51.3521 24.6379 50.8057 24.6379 50.1378V49.4336C24.6379 48.7657 25.1843 48.2193 25.8521 48.2193H30.0779C30.3207 49.2514 30.6121 50.3078 30.9643 51.3521ZM6.07143 58.2857C4.06786 58.2857 2.42857 56.6464 2.42857 54.6429V44.9286C2.42857 42.925 4.06786 41.2857 6.07143 41.2857H29.1914C29.2521 42.7064 29.3857 44.2243 29.6286 45.7907H25.8643C23.8607 45.7907 22.2214 47.43 22.2214 49.4336V50.1378C22.2214 52.1414 23.8607 53.7807 25.8643 53.7807H31.9114C32.5914 55.3228 33.4171 56.8407 34.425 58.2857H6.07143ZM48.9357 65.5107C48.705 65.5957 48.4379 65.5957 48.2071 65.5107C34.8014 60.8357 30.0536 48.0372 31.9236 34.085C31.9843 33.6357 32.3486 33.2714 32.81 33.2107C40.5086 32.2029 45.5479 28.8757 47.855 26.9693C48.2679 26.6293 48.875 26.6293 49.2879 26.9693C51.6071 28.8636 56.6464 32.2029 64.3329 33.2107C64.7943 33.2714 65.1586 33.6357 65.2193 34.085C65.9964 39.8529 67.1014 59.1843 48.9357 65.5107Z" fill="#333333"/>
<path d="M50.879 48.9601C49.4825 48.1829 47.6489 48.1829 46.2525 48.9601C44.8561 49.7493 46.0461 51.8622 47.4425 51.0729C48.1104 50.6965 49.0211 50.6965 49.689 51.0729C51.0975 51.8743 52.2875 49.7493 50.879 48.9601Z" fill="#333333"/>
<path d="M53.1741 45.2079C50.3812 43.6657 46.7505 43.6657 43.9576 45.2079C42.5491 45.985 43.7269 48.11 45.1355 47.3329C47.2119 46.1793 49.9198 46.1793 51.9962 47.3329C53.4048 48.11 54.5826 45.9972 53.1741 45.2079Z" fill="#333333"/>
<path d="M41.6749 41.48C40.2785 42.2693 41.4685 44.3821 42.8649 43.5929C46.3013 41.6743 50.8549 41.6743 54.2913 43.5929C55.6877 44.3821 56.8777 42.2572 55.4813 41.48C51.3163 39.1486 45.8277 39.1486 41.6749 41.48Z" fill="#333333"/>
<path d="M48.5706 33.1985C41.6249 33.1985 35.9663 38.6021 35.9663 45.2442C35.9663 51.8863 41.6127 57.2899 48.5706 57.2899C55.5284 57.2899 61.1749 51.8863 61.1749 45.2442C61.1749 38.6021 55.5163 33.1985 48.5706 33.1985ZM48.5706 54.8613C42.9606 54.8613 38.3949 50.5506 38.3949 45.2442C38.3949 39.9378 42.9606 35.6271 48.5706 35.6271C54.1806 35.6271 58.7463 39.9378 58.7463 45.2442C58.7463 50.5506 54.1806 54.8613 48.5706 54.8613Z" fill="#333333"/>
<path d="M12.3139 16.3079C15.2767 16.3079 17.6931 13.8915 17.6931 10.9286C17.6931 7.96574 15.2767 5.54932 12.3139 5.54932C9.351 5.54932 6.93457 7.96574 6.93457 10.9286C6.93457 13.8915 9.351 16.3079 12.3139 16.3079ZM12.3139 7.97789C13.941 7.97789 15.2646 9.30145 15.2646 10.9286C15.2646 12.5557 13.941 13.8793 12.3139 13.8793C10.6867 13.8793 9.36314 12.5557 9.36314 10.9286C9.36314 9.30145 10.6867 7.97789 12.3139 7.97789Z" fill="#333333"/>
<path d="M25.8509 14.9236H50.1366C55.0059 14.9236 55.0059 6.9458 50.1366 6.9458H25.8509C23.8473 6.9458 22.208 8.58509 22.208 10.5887V11.2808C22.208 13.2844 23.8352 14.9236 25.8509 14.9236ZM24.6366 10.5765C24.6366 9.90866 25.183 9.36224 25.8509 9.36224H50.1366C50.8044 9.36224 51.3509 9.90866 51.3509 10.5765V11.2687C51.3509 11.9365 50.8044 12.4829 50.1366 12.4829H25.8509C25.183 12.4829 24.6366 11.9365 24.6366 11.2687V10.5765Z" fill="#333333"/>
<path d="M12.3139 35.7366C15.2767 35.7366 17.6931 33.3202 17.6931 30.3573C17.6931 27.3944 15.2767 24.978 12.3139 24.978C9.351 24.978 6.93457 27.3944 6.93457 30.3573C6.93457 33.3202 9.351 35.7366 12.3139 35.7366ZM12.3139 27.4066C13.941 27.4066 15.2646 28.7302 15.2646 30.3573C15.2646 31.9844 13.941 33.308 12.3139 33.308C10.6867 33.308 9.36314 31.9844 9.36314 30.3573C9.36314 28.7302 10.6867 27.4066 12.3139 27.4066Z" fill="#333333"/>
<path d="M12.3139 44.4065C9.351 44.4065 6.93457 46.8229 6.93457 49.7858C6.93457 52.7486 9.351 55.165 12.3139 55.165C15.2767 55.165 17.6931 52.7486 17.6931 49.7858C17.6931 46.8229 15.2767 44.4065 12.3139 44.4065ZM12.3139 52.7365C10.6867 52.7365 9.36314 51.4129 9.36314 49.7858C9.36314 48.1586 10.6867 46.8351 12.3139 46.8351C13.941 46.8351 15.2646 48.1586 15.2646 49.7858C15.2646 51.4129 13.941 52.7365 12.3139 52.7365Z" fill="#333333"/>
</svg>
