<svg width="68" height="68" viewBox="0 0 68 68" fill="none" xmlns="http://www.w3.org/2000/svg">
<path d="M36.4538 38.3109C34.0738 36.9023 29.9817 38.0437 31.1231 39.9744C31.4631 40.5573 32.216 40.7394 32.7867 40.3994C33.5153 39.9623 34.4867 39.9623 35.2153 40.3994C36.5996 41.213 37.8381 39.1244 36.4538 38.3109Z" fill="#333333"/>
<path d="M38.8929 34.1094C35.93 32.3851 32.0565 32.3851 29.0936 34.1094C27.7093 34.9229 28.9236 37.0115 30.3201 36.2101C32.5422 34.9108 35.4565 34.9108 37.6665 36.2101C39.0629 37.0115 40.2893 34.9108 38.8929 34.1094Z" fill="#333333"/>
<path d="M41.3457 29.9201C36.9257 27.3215 31.0728 27.3215 26.6528 29.9201C25.2686 30.7337 26.495 32.8223 27.8914 32.0087C31.5585 29.8473 36.44 29.8473 40.1071 32.0087C41.4914 32.8223 42.73 30.7337 41.3457 29.9201Z" fill="#333333"/>
<path d="M34.0002 20.6428C26.6295 20.6428 20.6431 26.6293 20.6431 34C20.6431 41.3707 26.6295 47.3571 34.0002 47.3571C41.3709 47.3571 47.3574 41.3707 47.3574 34C47.3574 26.6293 41.3709 20.6428 34.0002 20.6428ZM34.0002 44.9285C27.9774 44.9285 23.0716 40.0228 23.0716 34C23.0716 27.9771 27.9774 23.0714 34.0002 23.0714C40.0231 23.0714 44.9288 27.9771 44.9288 34C44.9288 40.0228 40.0231 44.9285 34.0002 44.9285Z" fill="#333333"/>
<path d="M58.4557 35.2143C59.0022 37.3029 60.8843 38.8571 63.1429 38.8571C65.8264 38.8571 68 36.6836 68 34C68 31.3164 65.8264 29.1429 63.1429 29.1429C60.8843 29.1429 59.0022 30.6971 58.4557 32.7857H54.6429V23.0229H58.4557C59.0022 25.1114 60.8843 26.6657 63.1429 26.6657C65.8264 26.6657 68 24.4922 68 21.8086C68 19.125 65.8264 16.9514 63.1429 16.9514C60.8843 16.9514 59.0022 18.5057 58.4557 20.5943H54.6429V19.4286C54.6429 16.0771 51.9229 13.3571 48.5714 13.3571H47.4057V9.54429C49.4943 8.99786 51.0486 7.11571 51.0486 4.85714C51.0486 2.17357 48.875 0 46.1914 0C43.5079 0 41.3343 2.17357 41.3343 4.85714C41.3343 7.11571 42.8886 8.99786 44.9772 9.54429V13.3571H35.2143V9.54429C37.3029 8.99786 38.8571 7.11571 38.8571 4.85714C38.8571 2.17357 36.6836 0 34 0C31.3164 0 29.1429 2.17357 29.1429 4.85714C29.1429 7.11571 30.6971 8.99786 32.7857 9.54429V13.3571H23.0228V9.54429C25.1114 8.99786 26.6657 7.11571 26.6657 4.85714C26.6657 2.17357 24.4921 0 21.8086 0C19.125 0 16.9514 2.17357 16.9514 4.85714C16.9514 7.11571 18.5057 8.99786 20.5943 9.54429V13.3571H19.4286C16.0771 13.3571 13.3571 16.0771 13.3571 19.4286V20.5943H9.54427C8.99784 18.5057 7.11571 16.9514 4.85714 16.9514C2.17357 16.9514 0 19.125 0 21.8086C0 24.4922 2.17357 26.6657 4.85714 26.6657C7.11571 26.6657 8.99784 25.1114 9.54427 23.0229H13.3571V32.7857H9.54427C8.99784 30.6971 7.11571 29.1429 4.85714 29.1429C2.17357 29.1429 0 31.3164 0 34C0 36.6836 2.17357 38.8571 4.85714 38.8571C7.11571 38.8571 8.99784 37.3029 9.54427 35.2143H13.3571V44.9771H9.54427C8.99784 42.8886 7.11571 41.3343 4.85714 41.3343C2.17357 41.3343 0 43.5078 0 46.1914C0 48.875 2.17357 51.0486 4.85714 51.0486C7.11571 51.0486 8.99784 49.4943 9.54427 47.4057H13.3571V48.5714C13.3571 51.9229 16.0771 54.6429 19.4286 54.6429H20.5943V58.4557C18.5057 59.0021 16.9514 60.8843 16.9514 63.1429C16.9514 65.8264 19.125 68 21.8086 68C24.4921 68 26.6657 65.8264 26.6657 63.1429C26.6657 60.8843 25.1114 59.0021 23.0228 58.4557V54.6429H32.7857V58.4557C30.6971 59.0021 29.1429 60.8843 29.1429 63.1429C29.1429 65.8264 31.3164 68 34 68C36.6836 68 38.8571 65.8264 38.8571 63.1429C38.8571 60.8843 37.3029 59.0021 35.2143 58.4557V54.6429H44.9772V58.4557C42.8886 59.0021 41.3343 60.8843 41.3343 63.1429C41.3343 65.8264 43.5079 68 46.1914 68C48.875 68 51.0486 65.8264 51.0486 63.1429C51.0486 60.8843 49.4943 59.0021 47.4057 58.4557V54.6429H48.5714C51.9229 54.6429 54.6429 51.9229 54.6429 48.5714V47.4057H58.4557C59.0022 49.4943 60.8843 51.0486 63.1429 51.0486C65.8264 51.0486 68 48.875 68 46.1914C68 43.5078 65.8264 41.3343 63.1429 41.3343C60.8843 41.3343 59.0022 42.8886 58.4557 44.9771H54.6429V35.2143H58.4557ZM63.1429 31.5714C64.4786 31.5714 65.5714 32.6643 65.5714 34C65.5714 35.3357 64.4786 36.4286 63.1429 36.4286C61.8071 36.4286 60.7143 35.3357 60.7143 34C60.7143 32.6643 61.8071 31.5714 63.1429 31.5714ZM63.1429 19.38C64.4786 19.38 65.5714 20.4729 65.5714 21.8086C65.5714 23.1443 64.4786 24.2372 63.1429 24.2372C61.8071 24.2372 60.7143 23.1443 60.7143 21.8086C60.7143 20.4729 61.8071 19.38 63.1429 19.38ZM4.85714 24.2372C3.52143 24.2372 2.42857 23.1443 2.42857 21.8086C2.42857 20.4729 3.52143 19.38 4.85714 19.38C6.19286 19.38 7.28571 20.4729 7.28571 21.8086C7.28571 23.1443 6.19286 24.2372 4.85714 24.2372ZM4.85714 36.4286C3.52143 36.4286 2.42857 35.3357 2.42857 34C2.42857 32.6643 3.52143 31.5714 4.85714 31.5714C6.19286 31.5714 7.28571 32.6643 7.28571 34C7.28571 35.3357 6.19286 36.4286 4.85714 36.4286ZM4.85714 48.62C3.52143 48.62 2.42857 47.5271 2.42857 46.1914C2.42857 44.8557 3.52143 43.7628 4.85714 43.7628C6.19286 43.7628 7.28571 44.8557 7.28571 46.1914C7.28571 47.5271 6.19286 48.62 4.85714 48.62ZM43.7629 4.85714C43.7629 3.52143 44.8557 2.42857 46.1914 2.42857C47.5272 2.42857 48.62 3.52143 48.62 4.85714C48.62 6.19286 47.5272 7.28571 46.1914 7.28571C44.8557 7.28571 43.7629 6.19286 43.7629 4.85714ZM31.5714 4.85714C31.5714 3.52143 32.6643 2.42857 34 2.42857C35.3357 2.42857 36.4286 3.52143 36.4286 4.85714C36.4286 6.19286 35.3357 7.28571 34 7.28571C32.6643 7.28571 31.5714 6.19286 31.5714 4.85714ZM19.38 4.85714C19.38 3.52143 20.4728 2.42857 21.8086 2.42857C23.1443 2.42857 24.2371 3.52143 24.2371 4.85714C24.2371 6.19286 23.1443 7.28571 21.8086 7.28571C20.4728 7.28571 19.38 6.19286 19.38 4.85714ZM24.2371 63.1429C24.2371 64.4786 23.1443 65.5714 21.8086 65.5714C20.4728 65.5714 19.38 64.4786 19.38 63.1429C19.38 61.8071 20.4728 60.7143 21.8086 60.7143C23.1443 60.7143 24.2371 61.8071 24.2371 63.1429ZM36.4286 63.1429C36.4286 64.4786 35.3357 65.5714 34 65.5714C32.6643 65.5714 31.5714 64.4786 31.5714 63.1429C31.5714 61.8071 32.6643 60.7143 34 60.7143C35.3357 60.7143 36.4286 61.8071 36.4286 63.1429ZM48.62 63.1429C48.62 64.4786 47.5272 65.5714 46.1914 65.5714C44.8557 65.5714 43.7629 64.4786 43.7629 63.1429C43.7629 61.8071 44.8557 60.7143 46.1914 60.7143C47.5272 60.7143 48.62 61.8071 48.62 63.1429ZM52.2143 48.5714C52.2143 50.575 50.575 52.2143 48.5714 52.2143H19.4286C17.425 52.2143 15.7857 50.575 15.7857 48.5714V19.4286C15.7857 17.425 17.425 15.7857 19.4286 15.7857H48.5714C50.575 15.7857 52.2143 17.425 52.2143 19.4286V48.5714ZM63.1429 43.7628C64.4786 43.7628 65.5714 44.8557 65.5714 46.1914C65.5714 47.5271 64.4786 48.62 63.1429 48.62C61.8071 48.62 60.7143 47.5271 60.7143 46.1914C60.7143 44.8557 61.8071 43.7628 63.1429 43.7628Z" fill="#333333"/>
</svg>
