<svg width="53" height="68" viewBox="0 0 53 68" fill="none" xmlns="http://www.w3.org/2000/svg">
<path d="M26.5 26.7106C31.1495 26.7106 34.9318 22.8974 34.9318 18.2098C34.9318 13.5223 31.1495 9.70908 26.5 9.70908C21.8505 9.70908 18.0682 13.5223 18.0682 18.2098C18.0682 22.8974 21.8505 26.7106 26.5 26.7106ZM26.5 12.1379C29.8245 12.1379 32.5227 14.8581 32.5227 18.2098C32.5227 21.5616 29.8245 24.2818 26.5 24.2818C23.1755 24.2818 20.4773 21.5616 20.4773 18.2098C20.4773 14.8581 23.1755 12.1379 26.5 12.1379ZM46.9773 19.4242H42.135C42.135 19.2785 42.1591 19.1449 42.1591 18.9992V6.0659C42.1591 5.39798 41.617 4.85151 40.9545 4.85151H37.377C35.233 4.85151 33.1491 4.22003 31.3664 3.01778L27.1745 0.200375C26.765 -0.0667917 26.247 -0.0667917 25.8375 0.200375L21.6457 3.01778C19.863 4.22003 17.7791 4.85151 15.635 4.85151H12.0455C11.383 4.85151 10.8409 5.39798 10.8409 6.0659V18.9992C10.8409 19.1449 10.865 19.2785 10.865 19.4242H6.02273C2.69818 19.4242 0 22.1445 0 25.4962V49.7841C0 53.1358 2.69818 55.8561 6.02273 55.8561H21.6818V60.7136H15.6591C13.6716 60.7136 12.0455 62.3531 12.0455 64.3568C12.0455 66.3606 13.6716 68 15.6591 68H37.3409C39.3284 68 40.9545 66.3606 40.9545 64.3568C40.9545 62.3531 39.3284 60.7136 37.3409 60.7136H31.3182V55.8561H46.9773C50.3018 55.8561 53 53.1358 53 49.7841V25.4962C53 22.1445 50.3018 19.4242 46.9773 19.4242ZM13.25 7.28029H15.623C18.2489 7.28029 20.7905 6.50308 22.9707 5.03366L26.5 2.66559L30.0293 5.03366C32.2095 6.50308 34.7511 7.28029 37.377 7.28029H39.75V18.9992C39.75 22.6667 37.9432 26.067 34.9198 28.095L26.5 33.7541L18.0802 28.095C15.0568 26.067 13.25 22.6667 13.25 18.9992V7.28029ZM38.5455 64.3568C38.5455 65.0247 38.0034 65.5712 37.3409 65.5712H15.6591C14.9966 65.5712 14.4545 65.0247 14.4545 64.3568C14.4545 63.6889 14.9966 63.1424 15.6591 63.1424H22.8864H30.1136H37.3409C38.0034 63.1424 38.5455 63.6889 38.5455 64.3568ZM28.9091 60.7136H24.0909V55.8561H28.9091V60.7136ZM50.5909 49.7841C50.5909 51.7878 48.9648 53.4273 46.9773 53.4273H30.1136H22.8864H6.02273C4.03523 53.4273 2.40909 51.7878 2.40909 49.7841V25.4962C2.40909 23.4925 4.03523 21.853 6.02273 21.853H11.1661C11.8889 25.1926 13.8523 28.1679 16.7432 30.1109L25.8375 36.2193C26.0423 36.3529 26.2711 36.4258 26.5 36.4258C26.7289 36.4258 26.9698 36.3529 27.1625 36.2193L36.2568 30.1109C39.1477 28.1679 41.1111 25.1926 41.8339 21.853H46.9773C48.9648 21.853 50.5909 23.4925 50.5909 25.4962V49.7841ZM6.02273 38.8545C6.02273 38.1866 6.56477 37.6401 7.22727 37.6401H14.4545C15.117 37.6401 15.6591 38.1866 15.6591 38.8545C15.6591 39.5225 15.117 40.0689 14.4545 40.0689H7.22727C6.56477 40.0689 6.02273 39.5225 6.02273 38.8545ZM27.7045 43.7121C27.7045 44.38 27.1625 44.9265 26.5 44.9265H7.22727C6.56477 44.9265 6.02273 44.38 6.02273 43.7121C6.02273 43.0442 6.56477 42.4977 7.22727 42.4977H26.5C27.1625 42.4977 27.7045 43.0442 27.7045 43.7121ZM22.8864 48.5697C22.8864 49.2376 22.3443 49.7841 21.6818 49.7841H7.22727C6.56477 49.7841 6.02273 49.2376 6.02273 48.5697C6.02273 47.9018 6.56477 47.3553 7.22727 47.3553H21.6818C22.3443 47.3553 22.8864 47.9018 22.8864 48.5697ZM43.3636 40.0689H36.1364C34.1489 40.0689 32.5227 41.7084 32.5227 43.7121V46.1409C32.5227 48.1447 34.1489 49.7841 36.1364 49.7841H43.3636C45.3511 49.7841 46.9773 48.1447 46.9773 46.1409V43.7121C46.9773 41.7084 45.3511 40.0689 43.3636 40.0689ZM44.5682 46.1409C44.5682 46.8088 44.0261 47.3553 43.3636 47.3553H36.1364C35.4739 47.3553 34.9318 46.8088 34.9318 46.1409V43.7121C34.9318 43.0442 35.4739 42.4977 36.1364 42.4977H43.3636C44.0261 42.4977 44.5682 43.0442 44.5682 43.7121V46.1409Z" fill="#333333"/>
</svg>
