<svg width="69" height="68" viewBox="0 0 69 68" fill="none" xmlns="http://www.w3.org/2000/svg">
<path d="M38.1964 8.49469C34.7957 8.49469 32.0357 11.2149 32.0357 14.5667C32.0357 16.4854 32.9598 18.2827 34.5 19.4242V24.2818C34.5 26.2856 36.1634 27.925 38.1964 27.925C40.2295 27.925 41.8929 26.2856 41.8929 24.2818V19.4242C43.433 18.2948 44.3571 16.4854 44.3571 14.5667C44.3571 11.2149 41.5971 8.49469 38.1964 8.49469ZM40.0446 17.7119C39.6627 17.9305 39.4286 18.3313 39.4286 18.7685V24.2818C39.4286 24.9497 38.8741 25.4962 38.1964 25.4962C37.5187 25.4962 36.9643 24.9497 36.9643 24.2818V18.7685C36.9643 18.3313 36.7302 17.9305 36.3482 17.7119C35.2146 17.0683 34.5 15.8661 34.5 14.5667C34.5 12.5629 36.1634 10.9235 38.1964 10.9235C40.2295 10.9235 41.8929 12.5629 41.8929 14.5667C41.8929 15.8661 41.1905 17.0683 40.0446 17.7119ZM8.625 38.8545H3.69643C1.66339 38.8545 0 40.494 0 42.4977V47.3553C0 49.3591 1.66339 50.9985 3.69643 50.9985H8.625C10.658 50.9985 12.3214 49.3591 12.3214 47.3553V42.4977C12.3214 40.494 10.658 38.8545 8.625 38.8545ZM9.85714 47.3553C9.85714 48.0232 9.30268 48.5697 8.625 48.5697H3.69643C3.01875 48.5697 2.46429 48.0232 2.46429 47.3553V42.4977C2.46429 41.8298 3.01875 41.2833 3.69643 41.2833H8.625C9.30268 41.2833 9.85714 41.8298 9.85714 42.4977V47.3553ZM14.7857 42.4977C14.7857 41.8298 15.3402 41.2833 16.0179 41.2833H28.3393C29.017 41.2833 29.5714 41.8298 29.5714 42.4977C29.5714 43.1656 29.017 43.7121 28.3393 43.7121H16.0179C15.3402 43.7121 14.7857 43.1656 14.7857 42.4977ZM51.75 47.3553C51.75 48.0232 51.1955 48.5697 50.5179 48.5697H16.0179C15.3402 48.5697 14.7857 48.0232 14.7857 47.3553C14.7857 46.6874 15.3402 46.1409 16.0179 46.1409H50.5179C51.1955 46.1409 51.75 46.6874 51.75 47.3553ZM8.625 55.8561H3.69643C1.66339 55.8561 0 57.4955 0 59.4992V64.3568C0 66.3606 1.66339 68 3.69643 68H8.625C10.658 68 12.3214 66.3606 12.3214 64.3568V59.4992C12.3214 57.4955 10.658 55.8561 8.625 55.8561ZM9.85714 64.3568C9.85714 65.0247 9.30268 65.5712 8.625 65.5712H3.69643C3.01875 65.5712 2.46429 65.0247 2.46429 64.3568V59.4992C2.46429 58.8313 3.01875 58.2848 3.69643 58.2848H8.625C9.30268 58.2848 9.85714 58.8313 9.85714 59.4992V64.3568ZM14.7857 59.4992C14.7857 58.8313 15.3402 58.2848 16.0179 58.2848H28.3393C29.017 58.2848 29.5714 58.8313 29.5714 59.4992C29.5714 60.1672 29.017 60.7136 28.3393 60.7136H16.0179C15.3402 60.7136 14.7857 60.1672 14.7857 59.4992ZM46.8214 64.3568C46.8214 65.0247 46.267 65.5712 45.5893 65.5712H16.0179C15.3402 65.5712 14.7857 65.0247 14.7857 64.3568C14.7857 63.6889 15.3402 63.1424 16.0179 63.1424H45.5893C46.267 63.1424 46.8214 63.6889 46.8214 64.3568ZM65.3036 25.4962C63.7018 25.4962 62.3464 26.5163 61.8289 27.925H57.7012C57.3686 27.925 57.0605 27.7914 56.8264 27.5607L53.2163 24.0025C53.857 22.4359 54.2143 20.7358 54.2143 18.9871V16.279L55.0768 17.129C55.7791 17.8212 56.7032 18.1977 57.7012 18.1977H61.8289C62.3341 19.6064 63.6895 20.6265 65.3036 20.6265C67.3366 20.6265 69 18.9871 69 16.9833C69 14.9796 67.3366 13.3401 65.3036 13.3401C63.7018 13.3401 62.3464 14.3602 61.8289 15.7689H57.7012C57.3686 15.7689 57.0605 15.6353 56.8264 15.4046L54.2143 12.8544V6.0659C54.2143 5.39798 53.6598 4.85151 52.9821 4.85151H49.3227C47.1295 4.85151 44.9978 4.22002 43.1743 3.01777L38.8864 0.200375C38.4675 -0.0667917 37.9377 -0.0667917 37.5187 0.200375L33.2309 3.01777C31.4073 4.22002 29.2757 4.85151 27.0825 4.85151H23.4107C22.733 4.85151 22.1786 5.39798 22.1786 6.0659V14.5667H15.8084C14.8227 14.5667 13.8862 14.9431 13.1839 15.6353L10.2021 18.5742C9.72161 18.3434 9.19179 18.2098 8.61268 18.2098C6.57965 18.2098 4.91626 19.8493 4.91626 21.853C4.91626 23.8568 6.57965 25.4962 8.61268 25.4962C10.6457 25.4962 12.3091 23.8568 12.3091 21.853C12.3091 21.2944 12.1736 20.7722 11.9395 20.2865L14.9213 17.3476C15.1554 17.1169 15.4634 16.9833 15.7961 16.9833H22.1786V18.9871C22.1786 23.4682 24.4334 27.6214 28.2161 30.0988L37.5187 36.2072C37.7282 36.3407 37.9623 36.4136 38.1964 36.4136C38.4305 36.4136 38.677 36.3407 38.8741 36.2072L48.1768 30.0988C49.7416 29.0665 51.023 27.755 52.0088 26.2491L55.0768 29.273C55.7791 29.9652 56.7032 30.3416 57.7012 30.3416H61.8289C62.3341 31.7503 63.6895 32.7704 65.3036 32.7704C67.3366 32.7704 69 31.131 69 29.1272C69 27.1235 67.3366 25.4962 65.3036 25.4962ZM65.3036 15.7811C65.9812 15.7811 66.5357 16.3275 66.5357 16.9954C66.5357 17.6634 65.9812 18.2098 65.3036 18.2098C64.6259 18.2098 64.0714 17.6634 64.0714 16.9954C64.0714 16.3275 64.6259 15.7811 65.3036 15.7811ZM8.625 23.0674C7.94732 23.0674 7.39286 22.5209 7.39286 21.853C7.39286 21.1851 7.94732 20.6386 8.625 20.6386C8.95768 20.6386 9.26571 20.7722 9.4875 20.9908C9.4875 20.9908 9.48751 21.003 9.49983 21.003C9.51215 21.003 9.51214 21.0029 9.51214 21.0151C9.73393 21.2337 9.86946 21.5251 9.86946 21.8652C9.85714 22.5209 9.30268 23.0674 8.625 23.0674ZM46.8091 28.095L38.1964 33.7541L29.5837 28.095C26.4911 26.067 24.6429 22.6667 24.6429 18.9992V7.28029H27.0702C29.7563 7.28029 32.3561 6.50308 34.5863 5.03367L38.1964 2.66559L41.8066 5.03367C44.0368 6.50308 46.6366 7.28029 49.3227 7.28029H51.75V18.9992C51.75 22.6545 49.9018 26.0548 46.8091 28.095ZM65.3036 30.3538C64.6259 30.3538 64.0714 29.8073 64.0714 29.1394C64.0714 28.4715 64.6259 27.925 65.3036 27.925C65.9812 27.925 66.5357 28.4715 66.5357 29.1394C66.5357 29.8073 65.9812 30.3538 65.3036 30.3538Z" fill="#333333"/>
</svg>
