<svg width="80" height="80" viewBox="0 0 80 80" fill="none" xmlns="http://www.w3.org/2000/svg">
<circle cx="40" cy="40" r="40" fill="#403789"/>
<g clip-path="url(#clip0_161_1103)">
<path d="M40 34.5279C38.1271 34.5279 36.6071 36.0431 36.6071 37.9099C36.6071 38.9786 37.1161 39.9797 37.9643 40.6155V43.3211C37.9643 44.4372 38.8804 45.3503 40 45.3503C41.1196 45.3503 42.0357 44.4372 42.0357 43.3211V40.6155C42.8839 39.9865 43.3929 38.9786 43.3929 37.9099C43.3929 36.0431 41.8729 34.5279 40 34.5279ZM41.0179 39.6618C40.8075 39.7836 40.6786 40.0068 40.6786 40.2503V43.3211C40.6786 43.6931 40.3732 43.9975 40 43.9975C39.6268 43.9975 39.3214 43.6931 39.3214 43.3211V40.2503C39.3214 40.0068 39.1925 39.7836 38.9821 39.6618C38.3511 39.3033 37.9643 38.6337 37.9643 37.9099C37.9643 36.7939 38.8804 35.8807 40 35.8807C41.1196 35.8807 42.0357 36.7939 42.0357 37.9099C42.0357 38.6337 41.6489 39.3033 41.0179 39.6618ZM55.6071 21H37.9643C36.0914 21 34.5714 22.5151 34.5714 24.382V32.4446C34.3407 32.4717 34.11 32.4988 33.8725 32.4988H31.8571C31.4839 32.4988 31.1786 32.8031 31.1786 33.1752V36.5571H24.3929C22.52 36.5571 21 38.0723 21 39.9391V50.7615C21 52.6283 22.52 54.1435 24.3929 54.1435H25.0714C25.4446 54.1435 25.75 54.4478 25.75 54.8199V56.964C25.75 57.8028 26.2318 58.5198 27.0121 58.8444C27.27 58.9527 27.5414 59.0068 27.7993 59.0068C28.3218 59.0068 28.8307 58.8038 29.2243 58.4115L32.9021 54.7455C33.2821 54.3667 33.8046 54.1502 34.3407 54.1502H42.0357C43.9086 54.1502 45.4286 52.6351 45.4286 50.7682V46.6219L45.4964 46.5746C47.4439 45.2827 48.6382 43.1723 48.7875 40.8726L50.7757 42.8544C51.1693 43.2467 51.6782 43.4496 52.2007 43.4496C52.4654 43.4496 52.73 43.3955 52.9879 43.2873C53.7614 42.9694 54.25 42.2456 54.25 41.4069V39.2627C54.25 38.8907 54.5554 38.5863 54.9286 38.5863H55.6071C57.48 38.5863 59 37.0712 59 35.2043V24.382C59 22.5151 57.48 21 55.6071 21ZM44.0714 50.7615C44.0714 51.8775 43.1554 52.7907 42.0357 52.7907H34.3407C33.445 52.7907 32.5696 53.1492 31.9386 53.7782L28.2607 57.4443C27.9621 57.7419 27.6229 57.6337 27.5279 57.5931C27.4329 57.5525 27.1071 57.3834 27.1071 56.964V54.8199C27.1071 53.7038 26.1911 52.7907 25.0714 52.7907H24.3929C23.2732 52.7907 22.3571 51.8775 22.3571 50.7615V39.9391C22.3571 38.8231 23.2732 37.9099 24.3929 37.9099H31.1786V40.3788C31.1786 42.8747 32.4204 45.188 34.5036 46.5678L39.6268 49.9701C39.7354 50.0445 39.8711 50.0851 40 50.0851C40.1289 50.0851 40.2646 50.0445 40.3732 49.9701L44.0714 47.5148V50.7615ZM47.4643 40.3788C47.4643 42.4215 46.4464 44.3154 44.7432 45.445L40 48.597L35.2568 45.445C33.5536 44.3087 32.5357 42.4147 32.5357 40.3788V33.8515H33.8725C35.3518 33.8515 36.7836 33.4187 38.0118 32.6002L40 31.2812L41.9882 32.6002C43.2164 33.4187 44.6482 33.8515 46.1275 33.8515H47.4643V40.3788ZM57.6429 35.2043C57.6429 36.3204 56.7268 37.2335 55.6071 37.2335H54.9286C53.8089 37.2335 52.8929 38.1467 52.8929 39.2627V41.4069C52.8929 41.8263 52.5739 41.9954 52.4721 42.036C52.3704 42.0765 52.0311 42.1848 51.7393 41.8871L48.8214 38.9786V33.1752C48.8214 32.8031 48.5161 32.4988 48.1429 32.4988H46.1275C44.9196 32.4988 43.7457 32.147 42.7414 31.4774L40.38 29.9082C40.1493 29.7593 39.8575 29.7593 39.6268 29.9082L37.2654 31.4774C36.8446 31.7547 36.3968 31.9644 35.9354 32.1335V24.382C35.9354 23.2659 36.8514 22.3528 37.9711 22.3528H55.6139C56.7336 22.3528 57.6496 23.2659 57.6496 24.382V35.2043H57.6429ZM54.9286 25.7348C54.9286 26.1068 54.6232 26.4112 54.25 26.4112H47.4643C47.0911 26.4112 46.7857 26.1068 46.7857 25.7348C46.7857 25.3628 47.0911 25.0584 47.4643 25.0584H54.25C54.6232 25.0584 54.9286 25.3628 54.9286 25.7348ZM54.9286 28.4404C54.9286 28.8124 54.6232 29.1168 54.25 29.1168H43.3929C43.0196 29.1168 42.7143 28.8124 42.7143 28.4404C42.7143 28.0684 43.0196 27.764 43.3929 27.764H54.25C54.6232 27.764 54.9286 28.0684 54.9286 28.4404ZM33.2143 49.4087C33.2143 49.7807 32.9089 50.0851 32.5357 50.0851H25.75C25.3768 50.0851 25.0714 49.7807 25.0714 49.4087C25.0714 49.0367 25.3768 48.7323 25.75 48.7323H32.5357C32.9089 48.7323 33.2143 49.0367 33.2143 49.4087ZM25.0714 46.7031C25.0714 46.3311 25.3768 46.0267 25.75 46.0267H28.4643C28.8375 46.0267 29.1429 46.3311 29.1429 46.7031C29.1429 47.0751 28.8375 47.3795 28.4643 47.3795H25.75C25.3768 47.3795 25.0714 47.0751 25.0714 46.7031Z" fill="white"/>
</g>
<defs>
<clipPath id="clip0_161_1103">
<rect width="38" height="38" fill="white" transform="translate(21 21)"/>
</clipPath>
</defs>
</svg>
