<svg width="80" height="80" viewBox="0 0 80 80" fill="none" xmlns="http://www.w3.org/2000/svg">
<circle cx="40" cy="40" r="40" fill="#403789"/>
<g clip-path="url(#clip0_161_1022)">
<path d="M48.1429 32.5357H46.1275C44.9196 32.5357 43.7457 32.1829 42.7414 31.5111L40.38 29.9368C40.1493 29.7875 39.8575 29.7875 39.6268 29.9368L37.2654 31.5111C36.2543 32.1829 35.0804 32.5357 33.8725 32.5357H31.8571C31.4839 32.5357 31.1786 32.8411 31.1786 33.2143V40.4411C31.1786 42.945 32.4204 45.2657 34.5036 46.65L39.6268 50.0632C39.7354 50.1379 39.8711 50.1786 40 50.1786C40.1289 50.1786 40.2646 50.1379 40.3732 50.0632L45.4964 46.65C47.5796 45.2657 48.8214 42.9382 48.8214 40.4411V33.2143C48.8214 32.8411 48.5161 32.5357 48.1429 32.5357ZM47.4643 40.4411C47.4643 42.4904 46.4464 44.3904 44.7432 45.5236L40 48.6857L35.2568 45.5236C33.5536 44.3836 32.5357 42.4836 32.5357 40.4411V33.8929H33.8725C35.3518 33.8929 36.7836 33.4586 38.0118 32.6375L40 31.3143L41.9882 32.6375C43.2164 33.4586 44.6482 33.8929 46.1275 33.8929H47.4643V40.4411ZM40 34.5714C37.7539 34.5714 35.9286 36.3968 35.9286 38.6429C35.9286 40.6582 37.4011 42.3275 39.3214 42.6532V44.75C39.3214 45.1232 39.6268 45.4286 40 45.4286C40.3732 45.4286 40.6786 45.1232 40.6786 44.75V42.6532C42.5989 42.3275 44.0714 40.6582 44.0714 38.6429C44.0714 36.3968 42.2461 34.5714 40 34.5714ZM40.6786 41.2621V38.6429C40.6786 38.2696 40.3732 37.9643 40 37.9643C39.6268 37.9643 39.3214 38.2696 39.3214 38.6429V41.2621C38.1543 40.9568 37.2857 39.905 37.2857 38.6429C37.2857 37.1432 38.5004 35.9286 40 35.9286C41.4996 35.9286 42.7143 37.1432 42.7143 38.6429C42.7143 39.905 41.8457 40.9568 40.6786 41.2621ZM39.3214 24.9493V28.4643C39.3214 28.8375 39.6268 29.1429 40 29.1429C40.3732 29.1429 40.6786 28.8375 40.6786 28.4643V24.9493C41.4657 24.6643 42.0357 23.9179 42.0357 23.0357C42.0357 21.9161 41.1196 21 40 21C38.8804 21 37.9643 21.9161 37.9643 23.0357C37.9643 23.9179 38.5343 24.6643 39.3214 24.9493ZM40 22.3571C40.3732 22.3571 40.6786 22.6625 40.6786 23.0357C40.6786 23.4089 40.3732 23.7143 40 23.7143C39.6268 23.7143 39.3214 23.4089 39.3214 23.0357C39.3214 22.6625 39.6268 22.3571 40 22.3571ZM42.0357 26.9918V28.4643C42.0357 28.8375 42.3411 29.1429 42.7143 29.1429C43.0875 29.1429 43.3929 28.8375 43.3929 28.4643V26.9918C43.3929 26.8086 43.4675 26.6389 43.5964 26.51L44.56 25.5464C44.8246 25.6754 45.1164 25.75 45.4286 25.75C46.5482 25.75 47.4643 24.8339 47.4643 23.7143C47.4643 22.5946 46.5482 21.6786 45.4286 21.6786C44.3089 21.6786 43.3929 22.5946 43.3929 23.7143C43.3929 24.0264 43.4675 24.3182 43.5964 24.5896L42.6329 25.5464C42.2461 25.9332 42.0357 26.4489 42.0357 26.9918ZM45.4286 23.0357C45.8018 23.0357 46.1071 23.3411 46.1071 23.7143C46.1071 24.0875 45.8018 24.3929 45.4286 24.3929C45.2454 24.3929 45.0757 24.3182 44.9536 24.1961C44.9536 24.1961 44.9536 24.1893 44.9468 24.1893C44.94 24.1893 44.94 24.1893 44.94 24.1825C44.8246 24.0671 44.75 23.8975 44.75 23.7143C44.75 23.3411 45.0554 23.0357 45.4286 23.0357ZM34.5714 25.75C34.8836 25.75 35.1754 25.6754 35.4468 25.5464L36.4104 26.51C36.5325 26.6389 36.6071 26.8086 36.6071 26.9918V28.4643C36.6071 28.8375 36.9125 29.1429 37.2857 29.1429C37.6589 29.1429 37.9643 28.8375 37.9643 28.4643V26.9918C37.9643 26.4489 37.7539 25.9332 37.3671 25.5464L36.4036 24.5896C36.5325 24.3182 36.6071 24.0264 36.6071 23.7143C36.6071 22.5946 35.6911 21.6786 34.5714 21.6786C33.4518 21.6786 32.5357 22.5946 32.5357 23.7143C32.5357 24.8339 33.4518 25.75 34.5714 25.75ZM34.5714 23.0357C34.9446 23.0357 35.25 23.3411 35.25 23.7143C35.25 23.8975 35.1754 24.0671 35.0532 24.1893C35.0532 24.1893 35.0464 24.1893 35.0464 24.1961C35.0464 24.2029 35.0464 24.2029 35.0396 24.2029C34.9243 24.3182 34.7546 24.3929 34.5714 24.3929C34.1982 24.3929 33.8929 24.0875 33.8929 23.7143C33.8929 23.3411 34.1982 23.0357 34.5714 23.0357ZM40.6786 55.0507V51.5357C40.6786 51.1625 40.3732 50.8571 40 50.8571C39.6268 50.8571 39.3214 51.1625 39.3214 51.5357V55.0507C38.5343 55.3289 37.9643 56.0754 37.9643 56.9643C37.9643 58.0839 38.8804 59 40 59C41.1196 59 42.0357 58.0839 42.0357 56.9643C42.0357 56.0821 41.4657 55.3357 40.6786 55.0507ZM40 57.6429C39.6268 57.6429 39.3214 57.3375 39.3214 56.9643C39.3214 56.5911 39.6268 56.2857 40 56.2857C40.3732 56.2857 40.6786 56.5911 40.6786 56.9643C40.6786 57.3375 40.3732 57.6429 40 57.6429ZM37.9643 53.0082V51.5357C37.9643 51.1625 37.6589 50.8571 37.2857 50.8571C36.9125 50.8571 36.6071 51.1625 36.6071 51.5357V53.0082C36.6071 53.1914 36.5325 53.3611 36.4036 53.49L35.44 54.4536C35.1754 54.3246 34.8836 54.25 34.5714 54.25C33.4518 54.25 32.5357 55.1661 32.5357 56.2857C32.5357 57.4054 33.4518 58.3214 34.5714 58.3214C35.6911 58.3214 36.6071 57.4054 36.6071 56.2857C36.6071 55.9736 36.5325 55.6818 36.4036 55.4104L37.3671 54.4468C37.7539 54.0668 37.9643 53.5511 37.9643 53.0082ZM34.5714 56.9643C34.1982 56.9643 33.8929 56.6589 33.8929 56.2857C33.8929 55.9125 34.1982 55.6071 34.5714 55.6071C34.7546 55.6071 34.9243 55.6818 35.0464 55.8039C35.0464 55.8039 35.0464 55.8107 35.0532 55.8107C35.06 55.8107 35.06 55.8107 35.06 55.8175C35.1754 55.9329 35.25 56.1025 35.25 56.2857C35.25 56.6589 34.9446 56.9643 34.5714 56.9643ZM45.4286 54.25C45.1164 54.25 44.8246 54.3246 44.5532 54.4536L43.5896 53.49C43.4607 53.3611 43.3861 53.1914 43.3861 53.0082V51.5357C43.3861 51.1625 43.0807 50.8571 42.7075 50.8571C42.3343 50.8571 42.0289 51.1625 42.0289 51.5357V53.0082C42.0289 53.5511 42.2393 54.0668 42.6261 54.4536L43.5896 55.4171C43.4675 55.6818 43.3929 55.9736 43.3929 56.2857C43.3929 57.4054 44.3089 58.3214 45.4286 58.3214C46.5482 58.3214 47.4643 57.4054 47.4643 56.2857C47.4643 55.1661 46.5482 54.25 45.4286 54.25ZM45.4286 56.9643C45.0554 56.9643 44.75 56.6589 44.75 56.2857C44.75 56.1025 44.8246 55.9329 44.9468 55.8107C44.9468 55.8107 44.9536 55.8107 44.9536 55.8039C44.9536 55.7971 44.9536 55.7971 44.9604 55.7971C45.0757 55.6818 45.2454 55.6071 45.4286 55.6071C45.8018 55.6071 46.1071 55.9125 46.1071 56.2857C46.1071 56.6589 45.8018 56.9643 45.4286 56.9643ZM27.5279 52.4721C27.7925 52.7368 27.7925 53.1643 27.5279 53.4289C27.3921 53.5646 27.2225 53.6257 27.0461 53.6257C26.8696 53.6257 26.7 53.5646 26.5643 53.4357C22.9746 49.8461 21 45.0757 21 40C21 34.9243 22.9746 30.1539 26.5643 26.5643C26.8289 26.2996 27.2564 26.2996 27.5211 26.5643C27.7857 26.8289 27.7857 27.2564 27.5211 27.5211C24.1893 30.8596 22.3571 35.2907 22.3571 40C22.3571 44.7093 24.1893 49.1404 27.5279 52.4721ZM59 40C59 45.0757 57.0254 49.8461 53.4357 53.4357C53.3 53.5714 53.1304 53.6325 52.9539 53.6325C52.7775 53.6325 52.6079 53.5646 52.4721 53.4357C52.2075 53.1711 52.2075 52.7436 52.4721 52.4789C55.8107 49.1404 57.6429 44.7093 57.6429 40C57.6429 35.2907 55.8107 30.8596 52.4721 27.5279C52.2075 27.2632 52.2075 26.8357 52.4721 26.5711C52.7368 26.3064 53.1643 26.3064 53.4289 26.5711C57.0254 30.1539 59 34.9243 59 40ZM30.405 30.405C27.84 32.97 26.4286 36.3764 26.4286 40C26.4286 43.6236 27.84 47.03 30.405 49.595C30.6696 49.8596 30.6696 50.2871 30.405 50.5518C30.2693 50.6875 30.0996 50.7486 29.9232 50.7486C29.7468 50.7486 29.5771 50.6807 29.4414 50.5518C26.6254 47.7357 25.0714 43.99 25.0714 40C25.0714 36.01 26.6254 32.2643 29.4414 29.4414C29.7061 29.1768 30.1336 29.1768 30.3982 29.4414C30.6629 29.7061 30.6696 30.1404 30.405 30.405ZM54.9286 40C54.9286 43.99 53.3746 47.7357 50.5586 50.5586C50.4229 50.6943 50.2532 50.7554 50.0768 50.7554C49.9004 50.7554 49.7307 50.6875 49.595 50.5586C49.3304 50.2939 49.3304 49.8664 49.595 49.6018C52.16 47.03 53.5714 43.6236 53.5714 40C53.5714 36.3764 52.16 32.97 49.595 30.405C49.3304 30.1404 49.3304 29.7129 49.595 29.4482C49.8596 29.1836 50.2871 29.1836 50.5518 29.4482C53.3746 32.2643 54.9286 36.01 54.9286 40Z" fill="white"/>
</g>
<defs>
<clipPath id="clip0_161_1022">
<rect width="38" height="38" fill="white" transform="translate(21 21)"/>
</clipPath>
</defs>
</svg>
