<svg width="80" height="80" viewBox="0 0 80 80" fill="none" xmlns="http://www.w3.org/2000/svg">
<circle cx="40" cy="40" r="40" fill="#403789"/>
<g clip-path="url(#clip0_161_1089)">
<path d="M58.3214 41.3571H56.3061C55.0982 41.3571 53.9243 41.0043 52.92 40.3325L50.5586 38.7582C50.3279 38.6089 50.0361 38.6089 49.8054 38.7582L48.1429 39.8643V24.3929C48.1429 22.52 46.6229 21 44.75 21H24.3929C22.52 21 21 22.52 21 24.3929V51.5357C21 53.4086 22.52 54.9286 24.3929 54.9286H43.9629C44.1868 55.1254 44.4243 55.3018 44.6754 55.4714L49.7986 58.8846C49.9139 58.9593 50.0496 59 50.1786 59C50.3075 59 50.4432 58.9593 50.5518 58.8846L55.675 55.4714C57.7582 54.0871 59 51.7596 59 49.2625V42.0357C59 41.6625 58.6946 41.3571 58.3214 41.3571ZM24.3929 22.3571H44.75C45.8696 22.3571 46.7857 23.2732 46.7857 24.3929V29.1429H22.3571V24.3929C22.3571 23.2732 23.2732 22.3571 24.3929 22.3571ZM22.3571 51.5357V30.5H46.7857V40.6989C45.9375 41.1264 45.0079 41.3571 44.0511 41.3571H42.0357C41.6625 41.3571 41.3571 41.6625 41.3571 42.0357V49.2625C41.3571 50.83 41.8457 52.3296 42.7279 53.5714H24.3929C23.2732 53.5714 22.3571 52.6554 22.3571 51.5357ZM57.6429 49.2625C57.6429 51.3118 56.625 53.2118 54.9218 54.345L50.1786 57.5071L45.4354 54.345C43.7321 53.205 42.7143 51.305 42.7143 49.2625V42.7143H44.0511C45.5304 42.7143 46.9621 42.28 48.1904 41.4589L50.1786 40.1357L52.1668 41.4589C53.395 42.28 54.8268 42.7143 56.3061 42.7143H57.6429V49.2625ZM50.1786 43.3929C48.3057 43.3929 46.7857 44.9129 46.7857 46.7857C46.7857 47.8579 47.2946 48.8621 48.1429 49.5V52.2143C48.1429 53.3339 49.0589 54.25 50.1786 54.25C51.2982 54.25 52.2143 53.3339 52.2143 52.2143V49.5C53.0625 48.8689 53.5714 47.8579 53.5714 46.7857C53.5714 44.9129 52.0514 43.3929 50.1786 43.3929ZM51.1964 48.5432C50.9861 48.6654 50.8571 48.8893 50.8571 49.1336V52.2143C50.8571 52.5875 50.5518 52.8929 50.1786 52.8929C49.8054 52.8929 49.5 52.5875 49.5 52.2143V49.1336C49.5 48.8893 49.3711 48.6654 49.1607 48.5432C48.5296 48.1836 48.1429 47.5118 48.1429 46.7857C48.1429 45.6661 49.0589 44.75 50.1786 44.75C51.2982 44.75 52.2143 45.6661 52.2143 46.7857C52.2143 47.5118 51.8275 48.1836 51.1964 48.5432ZM27.1071 27.7857C28.2268 27.7857 29.1429 26.8696 29.1429 25.75C29.1429 24.6304 28.2268 23.7143 27.1071 23.7143C25.9875 23.7143 25.0714 24.6304 25.0714 25.75C25.0714 26.8696 25.9875 27.7857 27.1071 27.7857ZM27.1071 25.0714C27.4804 25.0714 27.7857 25.3768 27.7857 25.75C27.7857 26.1232 27.4804 26.4286 27.1071 26.4286C26.7339 26.4286 26.4286 26.1232 26.4286 25.75C26.4286 25.3768 26.7339 25.0714 27.1071 25.0714ZM32.5357 27.7857C33.6554 27.7857 34.5714 26.8696 34.5714 25.75C34.5714 24.6304 33.6554 23.7143 32.5357 23.7143C31.4161 23.7143 30.5 24.6304 30.5 25.75C30.5 26.8696 31.4161 27.7857 32.5357 27.7857ZM32.5357 25.0714C32.9089 25.0714 33.2143 25.3768 33.2143 25.75C33.2143 26.1232 32.9089 26.4286 32.5357 26.4286C32.1625 26.4286 31.8571 26.1232 31.8571 25.75C31.8571 25.3768 32.1625 25.0714 32.5357 25.0714ZM26.4286 43.3929H31.8571C32.9768 43.3929 33.8929 42.4768 33.8929 41.3571V35.9286C33.8929 35.8064 33.8793 35.6843 33.8589 35.5689L35.0532 34.3746C35.3179 34.11 35.3179 33.6825 35.0532 33.4179C34.7886 33.1532 34.3611 33.1532 34.0964 33.4179L33.1464 34.3679C32.7936 34.0761 32.3457 33.8929 31.8571 33.8929H26.4286C25.3089 33.8929 24.3929 34.8089 24.3929 35.9286V41.3571C24.3929 42.4768 25.3089 43.3929 26.4286 43.3929ZM25.75 35.9286C25.75 35.5554 26.0554 35.25 26.4286 35.25H31.8571C31.9725 35.25 32.0743 35.2839 32.1693 35.3382L29.1429 38.3646L28.2675 37.4893C28.0029 37.2246 27.5754 37.2246 27.3107 37.4893C27.0461 37.7539 27.0461 38.1814 27.3107 38.4461L28.6679 39.8032C28.7968 39.9321 28.9664 40 29.1429 40C29.3193 40 29.4889 39.9321 29.6246 39.8032L32.5357 36.8854V41.3571C32.5357 41.7304 32.2304 42.0357 31.8571 42.0357H26.4286C26.0554 42.0357 25.75 41.7304 25.75 41.3571V35.9286ZM24.3929 46.7857C24.3929 46.4125 24.6982 46.1071 25.0714 46.1071H31.8571C32.2304 46.1071 32.5357 46.4125 32.5357 46.7857C32.5357 47.1589 32.2304 47.4643 31.8571 47.4643H25.0714C24.6982 47.4643 24.3929 47.1589 24.3929 46.7857ZM37.9643 49.5C37.9643 49.8732 37.6589 50.1786 37.2857 50.1786H25.0714C24.6982 50.1786 24.3929 49.8732 24.3929 49.5C24.3929 49.1268 24.6982 48.8214 25.0714 48.8214H37.2857C37.6589 48.8214 37.9643 49.1268 37.9643 49.5Z" fill="white"/>
</g>
<defs>
<clipPath id="clip0_161_1089">
<rect width="38" height="38" fill="white" transform="translate(21 21)"/>
</clipPath>
</defs>
</svg>
