<svg width="80" height="80" viewBox="0 0 80 80" fill="none" xmlns="http://www.w3.org/2000/svg">
<circle cx="40" cy="40" r="40" fill="#403789"/>
<g clip-path="url(#clip0_161_1036)">
<path d="M42.0357 25.75C40.1629 25.75 38.6429 27.27 38.6429 29.1429C38.6429 30.215 39.1518 31.2193 40 31.8572V34.5715C40 35.6911 40.9161 36.6072 42.0357 36.6072C43.1554 36.6072 44.0714 35.6911 44.0714 34.5715V31.8572C44.9196 31.2261 45.4286 30.215 45.4286 29.1429C45.4286 27.27 43.9086 25.75 42.0357 25.75ZM43.0536 30.9004C42.8432 31.0225 42.7143 31.2465 42.7143 31.4907V34.5715C42.7143 34.9447 42.4089 35.25 42.0357 35.25C41.6625 35.25 41.3571 34.9447 41.3571 34.5715V31.4907C41.3571 31.2465 41.2282 31.0225 41.0179 30.9004C40.3868 30.5407 40 29.869 40 29.1429C40 28.0232 40.9161 27.1072 42.0357 27.1072C43.1554 27.1072 44.0714 28.0232 44.0714 29.1429C44.0714 29.869 43.6846 30.5407 43.0536 30.9004ZM25.75 42.7143H23.0357C21.9161 42.7143 21 43.6304 21 44.75V47.4643C21 48.584 21.9161 49.5 23.0357 49.5H25.75C26.8696 49.5 27.7857 48.584 27.7857 47.4643V44.75C27.7857 43.6304 26.8696 42.7143 25.75 42.7143ZM26.4286 47.4643C26.4286 47.8375 26.1232 48.1429 25.75 48.1429H23.0357C22.6625 48.1429 22.3571 47.8375 22.3571 47.4643V44.75C22.3571 44.3768 22.6625 44.0715 23.0357 44.0715H25.75C26.1232 44.0715 26.4286 44.3768 26.4286 44.75V47.4643ZM29.1429 44.75C29.1429 44.3768 29.4482 44.0715 29.8214 44.0715H36.6071C36.9804 44.0715 37.2857 44.3768 37.2857 44.75C37.2857 45.1232 36.9804 45.4286 36.6071 45.4286H29.8214C29.4482 45.4286 29.1429 45.1232 29.1429 44.75ZM49.5 47.4643C49.5 47.8375 49.1946 48.1429 48.8214 48.1429H29.8214C29.4482 48.1429 29.1429 47.8375 29.1429 47.4643C29.1429 47.0911 29.4482 46.7857 29.8214 46.7857H48.8214C49.1946 46.7857 49.5 47.0911 49.5 47.4643ZM25.75 52.2143H23.0357C21.9161 52.2143 21 53.1304 21 54.25V56.9643C21 58.084 21.9161 59 23.0357 59H25.75C26.8696 59 27.7857 58.084 27.7857 56.9643V54.25C27.7857 53.1304 26.8696 52.2143 25.75 52.2143ZM26.4286 56.9643C26.4286 57.3375 26.1232 57.6429 25.75 57.6429H23.0357C22.6625 57.6429 22.3571 57.3375 22.3571 56.9643V54.25C22.3571 53.8768 22.6625 53.5715 23.0357 53.5715H25.75C26.1232 53.5715 26.4286 53.8768 26.4286 54.25V56.9643ZM29.1429 54.25C29.1429 53.8768 29.4482 53.5715 29.8214 53.5715H36.6071C36.9804 53.5715 37.2857 53.8768 37.2857 54.25C37.2857 54.6232 36.9804 54.9286 36.6071 54.9286H29.8214C29.4482 54.9286 29.1429 54.6232 29.1429 54.25ZM46.7857 56.9643C46.7857 57.3375 46.4804 57.6429 46.1071 57.6429H29.8214C29.4482 57.6429 29.1429 57.3375 29.1429 56.9643C29.1429 56.5911 29.4482 56.2857 29.8214 56.2857H46.1071C46.4804 56.2857 46.7857 56.5911 46.7857 56.9643ZM56.9643 35.25C56.0821 35.25 55.3357 35.82 55.0507 36.6072H52.7775C52.5943 36.6072 52.4246 36.5325 52.2957 36.4036L50.3075 34.4154C50.6604 33.54 50.8571 32.59 50.8571 31.6129V30.0997L51.3321 30.5747C51.7189 30.9615 52.2279 31.1718 52.7775 31.1718H55.0507C55.3289 31.959 56.0754 32.529 56.9643 32.529C58.0839 32.529 59 31.6129 59 30.4932C59 29.3736 58.0839 28.4575 56.9643 28.4575C56.0821 28.4575 55.3357 29.0275 55.0507 29.8147H52.7775C52.5943 29.8147 52.4246 29.74 52.2957 29.6111L50.8571 28.1861V24.3929C50.8571 24.0197 50.5518 23.7143 50.1786 23.7143H48.1632C46.9554 23.7143 45.7814 23.3615 44.7771 22.6897L42.4157 21.1154C42.185 20.9661 41.8932 20.9661 41.6625 21.1154L39.3011 22.6897C38.29 23.3615 37.1161 23.7143 35.9082 23.7143H33.8929C33.5196 23.7143 33.2143 24.0197 33.2143 24.3929V29.1429H29.7061C29.1632 29.1429 28.6475 29.3532 28.2607 29.74L26.6254 31.3822C26.3539 31.2532 26.0621 31.1786 25.75 31.1786C24.6304 31.1786 23.7143 32.0947 23.7143 33.2143C23.7143 34.334 24.6304 35.25 25.75 35.25C26.8696 35.25 27.7857 34.334 27.7857 33.2143C27.7857 32.9022 27.7111 32.6104 27.5821 32.339L29.2243 30.6968C29.3532 30.5679 29.5229 30.4932 29.7061 30.4932H33.2143V31.6129C33.2143 34.1168 34.4561 36.4375 36.5393 37.8218L41.6625 41.235C41.7711 41.3165 41.9068 41.3572 42.0357 41.3572C42.1646 41.3572 42.3004 41.3165 42.4089 41.2418L47.5321 37.8286C48.3939 37.2518 49.0996 36.519 49.6425 35.6775L51.3321 37.3672C51.7189 37.754 52.2279 37.9643 52.7775 37.9643H55.0507C55.3289 38.7515 56.0754 39.3215 56.9643 39.3215C58.0839 39.3215 59 38.4054 59 37.2857C59 36.1661 58.0839 35.25 56.9643 35.25ZM56.9643 29.8215C57.3375 29.8215 57.6429 30.1268 57.6429 30.5C57.6429 30.8732 57.3375 31.1786 56.9643 31.1786C56.5911 31.1786 56.2857 30.8732 56.2857 30.5C56.2857 30.1268 56.5911 29.8215 56.9643 29.8215ZM25.75 33.8929C25.3768 33.8929 25.0714 33.5875 25.0714 33.2143C25.0714 32.8411 25.3768 32.5357 25.75 32.5357C25.9332 32.5357 26.1029 32.6104 26.225 32.7325C26.225 32.7325 26.225 32.7393 26.2318 32.7393C26.2386 32.7393 26.2386 32.7393 26.2386 32.7461C26.3539 32.8615 26.4286 33.0311 26.4286 33.2143C26.4286 33.5875 26.1232 33.8929 25.75 33.8929ZM46.7789 36.7022L42.0357 39.8643L37.2925 36.7022C35.5893 35.5622 34.5714 33.6622 34.5714 31.6197V25.0715H35.9082C37.3875 25.0715 38.8193 24.6372 40.0475 23.8161L42.0357 22.4929L44.0239 23.8161C45.2521 24.6372 46.6839 25.0715 48.1632 25.0715H49.5V31.6197C49.5 33.6622 48.4821 35.5622 46.7789 36.7022ZM56.9643 37.9643C56.5911 37.9643 56.2857 37.659 56.2857 37.2857C56.2857 36.9125 56.5911 36.6072 56.9643 36.6072C57.3375 36.6072 57.6429 36.9125 57.6429 37.2857C57.6429 37.659 57.3375 37.9643 56.9643 37.9643Z" fill="white"/>
</g>
<defs>
<clipPath id="clip0_161_1036">
<rect width="38" height="38" fill="white" transform="translate(21 21)"/>
</clipPath>
</defs>
</svg>
