<svg width="80" height="80" viewBox="0 0 80 80" fill="none" xmlns="http://www.w3.org/2000/svg">
<circle cx="40" cy="40" r="40" fill="#403789"/>
<g clip-path="url(#clip0_161_1050)">
<path d="M30.5 35.9285C25.7771 35.9285 21 37.0957 21 39.3214V55.6071C21 57.8328 25.7771 59 30.5 59C35.2229 59 40 57.8328 40 55.6071V39.3214C40 37.0957 35.2229 35.9285 30.5 35.9285ZM38.6429 50.1785C38.6429 50.8978 35.5486 52.2143 30.5 52.2143C25.4514 52.2143 22.3571 50.8978 22.3571 50.1785V46.5821C24.1079 47.6135 27.3175 48.1428 30.5 48.1428C33.6825 48.1428 36.8921 47.6135 38.6429 46.5821V50.1785ZM38.6429 44.75C38.6429 45.4693 35.5486 46.7857 30.5 46.7857C25.4514 46.7857 22.3571 45.4693 22.3571 44.75V41.1535C24.1079 42.185 27.3175 42.7143 30.5 42.7143C33.6825 42.7143 36.8921 42.185 38.6429 41.1535V44.75ZM30.5 37.2857C35.5486 37.2857 38.6429 38.6021 38.6429 39.3214C38.6429 40.0407 35.5486 41.3571 30.5 41.3571C25.4514 41.3571 22.3571 40.0407 22.3571 39.3214C22.3571 38.6021 25.4514 37.2857 30.5 37.2857ZM30.5 57.6428C25.4514 57.6428 22.3571 56.3264 22.3571 55.6071V52.0107C24.1079 53.0421 27.3175 53.5714 30.5 53.5714C33.6825 53.5714 36.8921 53.0421 38.6429 52.0107V55.6071C38.6429 56.3264 35.5486 57.6428 30.5 57.6428ZM58.3214 23.7143H56.5707C55.6275 23.7143 54.7182 23.436 53.9379 22.9135L51.2371 21.1085C51.0064 20.9593 50.7146 20.9593 50.4839 21.1085L47.7832 22.9135C46.9961 23.436 46.08 23.7143 45.1436 23.7143H43.3929C43.0196 23.7143 42.7143 24.0196 42.7143 24.3928V32.0268C42.7143 34.266 43.9357 36.3153 45.8968 37.3875L50.5314 39.9185C50.6332 39.9728 50.7418 40 50.8571 40C50.9725 40 51.0811 39.9728 51.1829 39.9185L55.8175 37.3875C57.7786 36.3153 59 34.2593 59 32.0268V24.3928C59 24.0196 58.6946 23.7143 58.3214 23.7143ZM57.6429 32.0268C57.6429 33.7639 56.6929 35.3653 55.1661 36.2L50.8571 38.5478L46.5482 36.2C45.0214 35.3653 44.0714 33.7639 44.0714 32.0268V25.0714H45.1436C46.3514 25.0714 47.5254 24.7185 48.5296 24.0468L50.8571 22.4928L53.1846 24.0468C54.1889 24.7185 55.3629 25.0714 56.5707 25.0714H57.6429V32.0268ZM51.5357 30.595V27.7857H52.2143C52.5875 27.7857 52.8929 27.4803 52.8929 27.1071C52.8929 26.7339 52.5875 26.4285 52.2143 26.4285H51.5357V25.75C51.5357 25.3768 51.2304 25.0714 50.8571 25.0714C50.4839 25.0714 50.1786 25.3768 50.1786 25.75V30.595C49.0114 30.9003 48.1429 31.9521 48.1429 33.2143C48.1429 34.7139 49.3575 35.9285 50.8571 35.9285C52.3568 35.9285 53.5714 34.7139 53.5714 33.2143C53.5714 31.9521 52.7029 30.9003 51.5357 30.595ZM50.8571 34.5714C50.1107 34.5714 49.5 33.9607 49.5 33.2143C49.5 32.4678 50.1107 31.8571 50.8571 31.8571C51.6036 31.8571 52.2143 32.4678 52.2143 33.2143C52.2143 33.9607 51.6036 34.5714 50.8571 34.5714ZM40.6786 28.4643H30.5C29.3804 28.4643 28.4643 29.3803 28.4643 30.5V30.6221C27.6771 30.9071 27.1071 31.6535 27.1071 32.5357C27.1071 33.6553 28.0232 34.5714 29.1429 34.5714C30.2625 34.5714 31.1786 33.6553 31.1786 32.5357C31.1786 31.6535 30.6086 30.9071 29.8214 30.6221V30.5C29.8214 30.1268 30.1268 29.8214 30.5 29.8214H40.6786C41.0518 29.8214 41.3571 29.516 41.3571 29.1428C41.3571 28.7696 41.0518 28.4643 40.6786 28.4643ZM29.1429 33.2143C28.7696 33.2143 28.4643 32.9089 28.4643 32.5357C28.4643 32.1625 28.7696 31.8571 29.1429 31.8571C29.5161 31.8571 29.8214 32.1625 29.8214 32.5357C29.8214 32.9089 29.5161 33.2143 29.1429 33.2143ZM50.8571 44.75C49.7375 44.75 48.8214 45.666 48.8214 46.7857C48.8214 47.6678 49.3914 48.4143 50.1786 48.6993V49.5C50.1786 49.8732 49.8732 50.1785 49.5 50.1785H42.0357C41.6625 50.1785 41.3571 50.4839 41.3571 50.8571C41.3571 51.2303 41.6625 51.5357 42.0357 51.5357H49.5C50.6196 51.5357 51.5357 50.6196 51.5357 49.5V48.6993C52.3229 48.421 52.8929 47.6746 52.8929 46.7857C52.8929 45.666 51.9768 44.75 50.8571 44.75ZM50.8571 47.4643C50.4839 47.4643 50.1786 47.1589 50.1786 46.7857C50.1786 46.4125 50.4839 46.1071 50.8571 46.1071C51.2304 46.1071 51.5357 46.4125 51.5357 46.7857C51.5357 47.1589 51.2304 47.4643 50.8571 47.4643Z" fill="white"/>
</g>
<defs>
<clipPath id="clip0_161_1050">
<rect width="38" height="38" fill="white" transform="translate(21 21)"/>
</clipPath>
</defs>
</svg>
