<svg width="80" height="80" viewBox="0 0 80 80" fill="none" xmlns="http://www.w3.org/2000/svg">
<circle cx="40" cy="40" r="40" fill="#403789"/>
<g clip-path="url(#clip0_161_1117)">
<path d="M57.2629 40.8636C57.6486 42.3491 58.9771 43.4545 60.5714 43.4545C62.4657 43.4545 64 41.9086 64 40C64 38.0914 62.4657 36.5455 60.5714 36.5455C58.9771 36.5455 57.6486 37.6509 57.2629 39.1364H54.1C55.0943 33.0391 54.0914 27.7882 54.0657 27.6759C54.0229 27.46 53.8857 27.2786 53.7143 27.1577V25.3182H57.2629C57.6486 26.8036 58.9771 27.9091 60.5714 27.9091C62.4657 27.9091 64 26.3632 64 24.4545C64 22.5459 62.4657 21 60.5714 21C58.9771 21 57.6486 22.1055 57.2629 23.5909H52.8571C52.3857 23.5909 52 23.9795 52 24.4545V26.8382C44.5343 25.7673 40.6943 21.3541 40.6514 21.3109C40.3086 20.905 39.6914 20.905 39.3486 21.3109C39.3057 21.3541 35.4657 25.7673 28 26.8382V24.4545C28 23.9795 27.6143 23.5909 27.1429 23.5909H22.7371C22.3514 22.1055 21.0229 21 19.4286 21C17.5343 21 16 22.5459 16 24.4545C16 26.3632 17.5343 27.9091 19.4286 27.9091C21.0229 27.9091 22.3514 26.8036 22.7371 25.3182H26.2857V27.1577C26.1143 27.2786 25.9771 27.46 25.9343 27.6845C25.9086 27.7968 24.9057 33.0477 25.9 39.145H22.7371C22.3514 37.6595 21.0229 36.5541 19.4286 36.5541C17.5343 36.5541 16 38.1 16 40.0086C16 41.9173 17.5343 43.4632 19.4286 43.4632C21.0229 43.4632 22.3514 42.3577 22.7371 40.8723H26.2343C27.04 44.4564 28.6086 48.1786 31.5143 51.2359H28C27.5286 51.2359 27.1429 51.6245 27.1429 52.0995V54.6905H22.7371C22.3514 53.205 21.0229 52.0995 19.4286 52.0995C17.5343 52.0995 16 53.6455 16 55.5541C16 57.4627 17.5343 59.0086 19.4286 59.0086C21.0229 59.0086 22.3514 57.9032 22.7371 56.4177H28C28.4714 56.4177 28.8571 56.0291 28.8571 55.5541V52.9632H33.4086C35.1314 54.3364 37.2057 55.5195 39.7343 56.3745C39.9143 56.435 40.1029 56.435 40.2829 56.3745C42.8029 55.5195 44.8771 54.345 46.6086 52.9632H51.1429V55.5541C51.1429 56.0291 51.5286 56.4177 52 56.4177H57.2629C57.6486 57.9032 58.9771 59.0086 60.5714 59.0086C62.4657 59.0086 64 57.4627 64 55.5541C64 53.6455 62.4657 52.0995 60.5714 52.0995C58.9771 52.0995 57.6486 53.205 57.2629 54.6905H52.8571V52.0995C52.8571 51.6245 52.4714 51.2359 52 51.2359H48.4857C51.3914 48.1786 52.96 44.4564 53.7657 40.8723H57.2629V40.8636ZM60.5714 38.2727C61.5143 38.2727 62.2857 39.05 62.2857 40C62.2857 40.95 61.5143 41.7273 60.5714 41.7273C59.6286 41.7273 58.8571 40.95 58.8571 40C58.8571 39.05 59.6286 38.2727 60.5714 38.2727ZM60.5714 22.7273C61.5143 22.7273 62.2857 23.5045 62.2857 24.4545C62.2857 25.4045 61.5143 26.1818 60.5714 26.1818C59.6286 26.1818 58.8571 25.4045 58.8571 24.4545C58.8571 23.5045 59.6286 22.7273 60.5714 22.7273ZM19.4286 26.1818C18.4857 26.1818 17.7143 25.4045 17.7143 24.4545C17.7143 23.5045 18.4857 22.7273 19.4286 22.7273C20.3714 22.7273 21.1429 23.5045 21.1429 24.4545C21.1429 25.4045 20.3714 26.1818 19.4286 26.1818ZM19.4286 41.7273C18.4857 41.7273 17.7143 40.95 17.7143 40C17.7143 39.05 18.4857 38.2727 19.4286 38.2727C20.3714 38.2727 21.1429 39.05 21.1429 40C21.1429 40.95 20.3714 41.7273 19.4286 41.7273ZM19.4286 57.2727C18.4857 57.2727 17.7143 56.4955 17.7143 55.5455C17.7143 54.5955 18.4857 53.8182 19.4286 53.8182C20.3714 53.8182 21.1429 54.5955 21.1429 55.5455C21.1429 56.4955 20.3714 57.2727 19.4286 57.2727ZM60.5714 53.8182C61.5143 53.8182 62.2857 54.5955 62.2857 55.5455C62.2857 56.4955 61.5143 57.2727 60.5714 57.2727C59.6286 57.2727 58.8571 56.4955 58.8571 55.5455C58.8571 54.5955 59.6286 53.8182 60.5714 53.8182ZM52.3686 39.6114C52.24 39.8532 52.2657 39.9655 52.2743 40.0777C50.8429 47.0214 46.8571 52.2032 40 54.63C33.1429 52.2032 29.1571 47.0214 27.7171 40.0777C27.7257 39.9655 27.76 39.8618 27.6229 39.6114C26.7057 34.7405 27.2371 30.2755 27.5029 28.6518C34.3429 27.8832 38.4829 24.5582 40 23.1073C41.5171 24.5668 45.6571 27.8918 52.4971 28.6518C52.7543 30.2755 53.2943 34.7405 52.3686 39.6114Z" fill="white"/>
<path d="M41.7317 41.3387C40.686 40.7169 39.3146 40.7169 38.2689 41.3387C37.2917 41.9173 38.166 43.4114 39.1432 42.8241C39.6574 42.5219 40.3432 42.5219 40.8574 42.8241C41.2689 43.066 41.7917 42.9278 42.0317 42.5219C42.2717 42.1073 42.1346 41.5805 41.7317 41.3387Z" fill="white"/>
<path d="M43.4534 38.3504C41.3619 37.1241 38.6276 37.1241 36.5362 38.3504C35.5591 38.9291 36.4162 40.4145 37.4019 39.8445C38.9705 38.9291 41.0191 38.9291 42.5876 39.8445C42.9991 40.0863 43.5219 39.9482 43.7619 39.5336C44.0019 39.1191 43.8648 38.5836 43.4534 38.3504Z" fill="white"/>
<path d="M45.1867 35.371C42.0667 33.5228 37.9352 33.5228 34.8238 35.371C33.8467 35.9496 34.721 37.4437 35.6895 36.8565C38.2867 35.3192 41.7238 35.3192 44.321 36.8565C44.7238 37.0983 45.2552 36.9687 45.4952 36.5542C45.7267 36.1396 45.5895 35.6128 45.1867 35.371Z" fill="white"/>
<path d="M40.0008 28.7727C34.798 28.7727 30.5723 33.0304 30.5723 38.2727C30.5723 43.515 34.798 47.7727 40.0008 47.7727C45.2037 47.7727 49.4294 43.515 49.4294 38.2727C49.4294 33.0304 45.2037 28.7727 40.0008 28.7727ZM40.0008 46.0454C35.7494 46.0454 32.2866 42.5563 32.2866 38.2727C32.2866 33.9891 35.7494 30.5 40.0008 30.5C44.2523 30.5 47.7151 33.9891 47.7151 38.2727C47.7151 42.5563 44.2523 46.0454 40.0008 46.0454Z" fill="white"/>
</g>
<defs>
<clipPath id="clip0_161_1117">
<rect width="48" height="38" fill="white" transform="translate(16 21)"/>
</clipPath>
</defs>
</svg>
