<svg width="120" height="120" viewBox="0 0 120 120" fill="none" xmlns="http://www.w3.org/2000/svg">
<circle cx="60" cy="60" r="60" fill="#F8F8F8"/>
<g clip-path="url(#clip0_102_579)">
<path d="M60 39C60.55 39 61 38.55 61 38V36C61 35.45 60.55 35 60 35C59.45 35 59 35.45 59 36V38C59 38.55 59.45 39 60 39Z" fill="#403789"/>
<path d="M45.8597 44.27C46.2297 44.64 46.8797 44.66 47.2697 44.27C47.6597 43.88 47.6597 43.25 47.2697 42.86L45.8597 41.44C45.4697 41.05 44.8397 41.05 44.4497 41.44C44.0597 41.83 44.0597 42.46 44.4497 42.85C44.4397 42.86 45.8597 44.27 45.8597 44.27Z" fill="#403789"/>
<path d="M41 56H39C38.45 56 38 56.45 38 57C38 57.55 38.45 58 39 58H41C41.55 58 42 57.55 42 57C42 56.45 41.55 56 41 56Z" fill="#403789"/>
<path d="M45.86 69.73L44.44 71.14C44.05 71.53 44.05 72.16 44.44 72.55C44.83 72.94 45.47 72.94 45.85 72.55L47.27 71.14C47.66 70.75 47.66 70.12 47.27 69.73C46.88 69.34 46.25 69.34 45.86 69.73Z" fill="#403789"/>
<path d="M73.4304 44.56C73.6904 44.56 73.9404 44.46 74.1404 44.27L75.5604 42.86C75.9504 42.47 75.9504 41.84 75.5604 41.45C75.1704 41.06 74.5404 41.06 74.1504 41.45C74.1504 41.45 72.7404 42.86 72.7304 42.86C72.1204 43.46 72.5804 44.56 73.4304 44.56Z" fill="#403789"/>
<path d="M81 56H79C78.45 56 78 56.45 78 57C78 57.55 78.45 58 79 58H81C81.55 58 82 57.55 82 57C82 56.45 81.55 56 81 56Z" fill="#403789"/>
<path d="M74.14 69.73C73.75 69.34 73.12 69.34 72.73 69.73C72.34 70.12 72.34 70.75 72.73 71.14C72.73 71.14 74.14 72.55 74.15 72.55C74.52 72.92 75.17 72.94 75.56 72.55C75.95 72.16 75.95 71.53 75.56 71.14L74.14 69.73Z" fill="#403789"/>
<path d="M71.0404 45.4201C67.8404 42.3701 63.6204 40.8001 59.2104 41.0201C51.0104 41.4101 44.3404 48.1501 44.0104 56.3601C43.8604 60.1601 45.0804 63.9001 47.4404 66.8901C49.1104 69.0101 50.0004 71.4201 50.0004 73.8701V74.0001C50.0004 75.3801 50.9504 76.5401 52.2204 76.8801C52.0804 77.2301 52.0004 77.6101 52.0004 78.0001C52.0004 79.3801 52.9504 80.5401 54.2204 80.8801C54.0804 81.2301 54.0004 81.6101 54.0004 82.0001C54.0004 83.6501 55.3504 85.0001 57.0004 85.0001H63.0004C64.6504 85.0001 66.0004 83.6501 66.0004 82.0001C66.0004 81.6101 65.9204 81.2301 65.7804 80.8801C67.0504 80.5401 68.0004 79.3801 68.0004 78.0001C68.0004 77.6101 67.9204 77.2301 67.7804 76.8801C69.0504 76.5401 70.0004 75.3801 70.0004 74.0001V73.8701C70.0004 71.4201 70.8904 69.0101 72.5604 66.8901C74.8104 64.0401 76.0004 60.6201 76.0004 57.0001C76.0004 52.5801 74.2404 48.4701 71.0404 45.4201ZM63.0004 83.0001H57.0004C56.4504 83.0001 56.0004 82.5501 56.0004 82.0001C56.0004 81.4501 56.4504 81.0001 57.0004 81.0001H63.0004C63.5504 81.0001 64.0004 81.4501 64.0004 82.0001C64.0004 82.5501 63.5504 83.0001 63.0004 83.0001ZM65.0004 79.0001H55.0004C54.4504 79.0001 54.0004 78.5501 54.0004 78.0001C54.0004 77.4501 54.4504 77.0001 55.0004 77.0001H65.0004C65.5504 77.0001 66.0004 77.4501 66.0004 78.0001C66.0004 78.5501 65.5504 79.0001 65.0004 79.0001ZM58.9704 70.7601L58.2804 68.0001H61.7204L61.0304 70.7601C61.0104 70.8401 61.0004 70.9201 61.0004 71.0001V75.0001H59.0004V71.0001C59.0004 70.9201 58.9904 70.8401 58.9704 70.7601ZM71.0004 65.6501C69.0404 68.1201 68.0004 70.9701 68.0004 73.8701V74.0001C68.0004 74.5501 67.5504 75.0001 67.0004 75.0001H63.0004V71.1201L63.9704 67.2401C64.0404 66.9401 63.9804 66.6301 63.7904 66.3801C63.6704 66.2301 63.5004 66.1401 63.3204 66.0701L65.9604 57.2901C66.1204 56.7601 65.8204 56.2001 65.2904 56.0401C64.7504 55.8801 64.2004 56.1801 64.0404 56.7101L61.2604 66.0001H58.7404L55.9604 56.7101C55.8004 56.1801 55.2404 55.8801 54.7104 56.0401C54.1804 56.2001 53.8804 56.7601 54.0404 57.2901L56.6804 66.0701C56.5004 66.1401 56.3304 66.2301 56.2104 66.3801C56.0204 66.6301 55.9604 66.9401 56.0304 67.2401L57.0004 71.1201V75.0001H53.0004C52.4504 75.0001 52.0004 74.5501 52.0004 74.0001V73.8701C52.0004 70.9701 50.9604 68.1201 49.0004 65.6501C46.9404 63.0401 45.8804 59.7701 46.0104 56.4401C46.2904 49.2601 52.1404 43.3601 59.3104 43.0201C59.5404 43.0101 59.7704 43.0001 60.0104 43.0001C63.6204 43.0001 67.0304 44.3601 69.6604 46.8601C72.4604 49.5301 74.0004 53.1301 74.0004 57.0001C74.0004 60.1701 72.9604 63.1601 71.0004 65.6501Z" fill="#403789"/>
</g>
<defs>
<clipPath id="clip0_102_579">
<rect width="44" height="50" fill="white" transform="translate(38 35)"/>
</clipPath>
</defs>
</svg>
