<svg width="120" height="120" viewBox="0 0 120 120" fill="none" xmlns="http://www.w3.org/2000/svg">
<circle cx="60" cy="60" r="60" fill="#F8F8F8"/>
<g clip-path="url(#clip0_101_1441)">
<path d="M41.2903 50.7101C41.4903 50.9001 41.7403 51.0001 42.0003 51.0001C42.2603 51.0001 42.5103 50.9001 42.7103 50.7101L46.7103 46.7101C47.1003 46.3201 47.1003 45.6901 46.7103 45.3001C46.3203 44.9101 45.6903 44.9101 45.3003 45.3001L42.0003 48.5901L40.7103 47.3001C40.3203 46.9101 39.6903 46.9101 39.3003 47.3001C38.9103 47.6901 38.9103 48.3201 39.3003 48.7101L41.2903 50.7101Z" fill="#403789"/>
<path d="M50 51H66C66.55 51 67 50.55 67 50C67 49.45 66.55 49 66 49H50C49.45 49 49 49.45 49 50C49 50.55 49.45 51 50 51Z" fill="#403789"/>
<path d="M56 47H66C66.55 47 67 46.55 67 46C67 45.45 66.55 45 66 45H56C55.45 45 55 45.45 55 46C55 46.55 55.45 47 56 47Z" fill="#403789"/>
<path d="M41.2903 58.7101C41.4903 58.9001 41.7403 59.0001 42.0003 59.0001C42.2603 59.0001 42.5103 58.9001 42.7103 58.7101L46.7103 54.7101C47.1003 54.3201 47.1003 53.6901 46.7103 53.3001C46.3203 52.9101 45.6903 52.9101 45.3003 53.3001L42.0003 56.5901L40.7103 55.3001C40.3203 54.9101 39.6903 54.9101 39.3003 55.3001C38.9103 55.6901 38.9103 56.3201 39.3003 56.7101L41.2903 58.7101Z" fill="#403789"/>
<path d="M50 59H66C66.55 59 67 58.55 67 58C67 57.45 66.55 57 66 57H50C49.45 57 49 57.45 49 58C49 58.55 49.45 59 50 59Z" fill="#403789"/>
<path d="M66 53H56C55.45 53 55 53.45 55 54C55 54.55 55.45 55 56 55H66C66.55 55 67 54.55 67 54C67 53.45 66.55 53 66 53Z" fill="#403789"/>
<path d="M41.2903 66.7101C41.4903 66.9001 41.7403 67.0001 42.0003 67.0001C42.2603 67.0001 42.5103 66.9001 42.7103 66.7101L46.7103 62.7101C47.1003 62.3201 47.1003 61.6901 46.7103 61.3001C46.3203 60.9101 45.6903 60.9101 45.3003 61.3001L42.0003 64.5901L40.7103 63.3001C40.3203 62.9101 39.6903 62.9101 39.3003 63.3001C38.9103 63.6901 38.9103 64.3201 39.3003 64.7101L41.2903 66.7101Z" fill="#403789"/>
<path d="M85.1 59.91C85.03 59.58 84.79 59.3 84.47 59.19L82.84 58.57L84.71 56.71C85.1 56.32 85.1 55.68 84.71 55.29C84.32 54.9 83.68 54.9 83.29 55.29L81.39 57.2L80.83 55.56C80.71 55.23 80.44 54.98 80.1 54.9C79.77 54.83 79.42 54.93 79.17 55.17L76.58 57.76C76.39 57.96 76.28 58.23 76.29 58.5L76.42 62.16L74.74 63.85C73.64 62.92 72.38 62.19 71 61.7V38C71 36.41 69.75 35.11 68.18 35.02C68.17 35.02 68.15 35.02 68.14 35.01C68.09 35.01 68.05 35 68 35H39.37C39.32 35 39.28 35.02 39.24 35.03C39.13 35.02 39.02 35 38.91 35C36.75 35 35 36.75 35 38.91V73.09C35 74.14 35.41 75.12 36.14 75.86C36.88 76.59 37.86 77 38.91 77C39.02 77 39.13 76.98 39.24 76.97C39.28 76.98 39.32 77 39.37 77H55.7C57.35 81.65 61.79 85 67 85C73.62 85 79 79.62 79 73C79 70.05 77.93 67.35 76.15 65.26L77.79 63.63L81.51 63.71C81.52 63.71 81.52 63.71 81.53 63.71C81.8 63.71 82.05 63.61 82.24 63.42L84.83 60.83C85.07 60.59 85.17 60.24 85.1 59.91ZM59.55 37L43.66 40.81L42.61 37.68C42.53 37.44 42.43 37.21 42.31 37H59.55ZM42.31 75C42.42 74.79 42.53 74.56 42.61 74.33L43.66 71.19L55.05 73.92C55.07 74.28 55.12 74.64 55.18 75H42.31ZM55.06 71.87L43.23 69.03C42.73 68.9 42.22 69.19 42.05 69.68L40.71 73.7C40.45 74.48 39.73 75 38.91 75C38.39 75 37.92 74.81 37.56 74.44C37.19 74.08 37 73.61 37 73.09V38.91C37 37.86 37.86 37 38.91 37C39.73 37 40.45 37.52 40.71 38.31L42.05 42.32C42.22 42.81 42.73 43.09 43.23 42.97L68.06 37.01C68.58 37.05 69 37.47 69 38V61.18C68.35 61.07 67.68 61 67 61C66.73 61 66.47 61.02 66.2 61.04C66.13 61.03 66.07 61 66 61H56C55.45 61 55 61.45 55 62C55 62.55 55.45 63 56 63H60.38C59.53 63.57 58.76 64.24 58.08 65H50C49.45 65 49 65.45 49 66C49 66.55 49.45 67 50 67H56.62C55.78 68.46 55.22 70.1 55.06 71.87ZM77 73C77 78.51 72.51 83 67 83C61.49 83 57 78.51 57 73C57 67.49 61.49 63 67 63C69.4 63 71.6 63.85 73.32 65.26L71.18 67.4C70.02 66.53 68.57 66 67 66C63.14 66 60 69.14 60 73C60 76.86 63.14 80 67 80C70.86 80 74 76.86 74 73C74 71.43 73.47 69.98 72.6 68.82L74.74 66.68C76.15 68.4 77 70.6 77 73ZM67.71 72.3C67.89 72.48 68 72.73 68 73C68 73.55 67.55 74 67 74C66.45 74 66 73.55 66 73C66 72.45 66.45 72 67 72C67.28 72 67.53 72.12 67.71 72.3ZM67 70C65.35 70 64 71.35 64 73C64 74.65 65.35 76 67 76C68.65 76 70 74.65 70 73C70 72.54 69.89 72.11 69.7 71.71L71.17 70.25C71.69 71.04 72 71.98 72 73C72 75.76 69.76 78 67 78C64.24 78 62 75.76 62 73C62 70.24 64.24 68 67 68C68.02 68 68.96 68.31 69.75 68.83L68.29 70.3C67.89 70.11 67.46 70 67 70ZM81.13 61.7L78.4 61.64L78.3 58.87L79.45 57.72L79.97 59.24C80.07 59.52 80.28 59.75 80.56 59.85L82.32 60.51L81.13 61.7Z" fill="#403789"/>
</g>
<defs>
<clipPath id="clip0_101_1441">
<rect width="50.12" height="50" fill="white" transform="translate(35 35)"/>
</clipPath>
</defs>
</svg>
