<svg width="120" height="120" viewBox="0 0 120 120" fill="none" xmlns="http://www.w3.org/2000/svg">
<circle cx="60" cy="60" r="60" fill="#F8F8F8"/>
<g clip-path="url(#clip0_102_565)">
<path d="M84.99 41.4901C84.94 41.1701 84.73 40.9001 84.44 40.7601L81.89 39.5301L83.71 37.7101C84.1 37.3201 84.1 36.6901 83.71 36.3001C83.32 35.9101 82.69 35.9101 82.3 36.3001L80.46 38.1401L79.25 35.5801C79.11 35.2901 78.84 35.0801 78.52 35.0201C78.2 34.9601 77.87 35.0701 77.64 35.3001L72.64 40.3001C72.34 40.6001 72.26 41.0501 72.44 41.4301L73.94 44.6501L68.69 49.9001C65.55 47.0801 61.49 45.2901 57 45.0501V44.0001C57 43.4501 56.55 43.0001 56 43.0001C55.45 43.0001 55 43.4501 55 44.0001V45.0501C45.32 45.5601 37.56 53.3201 37.05 63.0001H36C35.45 63.0001 35 63.4501 35 64.0001C35 64.5501 35.45 65.0001 36 65.0001H37.05C37.56 74.6801 45.32 82.4401 55 82.9501V84.0001C55 84.5501 55.45 85.0001 56 85.0001C56.55 85.0001 57 84.5501 57 84.0001V82.9501C66.68 82.4401 74.44 74.6801 74.95 65.0001H76C76.55 65.0001 77 64.5501 77 64.0001C77 63.4501 76.55 63.0001 76 63.0001H74.95C74.71 58.5201 72.93 54.4501 70.1 51.3101L75.4 46.0101L78.56 47.5501C78.7 47.6201 78.85 47.6501 79 47.6501C79.26 47.6501 79.52 47.5501 79.71 47.3601L84.71 42.3601C84.94 42.1401 85.04 41.8101 84.99 41.4901ZM74.55 41.2101L78.05 37.7101L78.96 39.6301L75.45 43.1401L74.55 41.2101ZM72.95 63.0001H72C71.45 63.0001 71 63.4501 71 64.0001C71 64.5501 71.45 65.0001 72 65.0001H72.95C72.45 73.5801 65.58 80.4501 57 80.9501V80.0001C57 79.4501 56.55 79.0001 56 79.0001C55.45 79.0001 55 79.4501 55 80.0001V80.9501C46.42 80.4501 39.55 73.5701 39.05 65.0001H40C40.55 65.0001 41 64.5501 41 64.0001C41 63.4501 40.55 63.0001 40 63.0001H39.05C39.55 54.4201 46.42 47.5501 55 47.0501V48.0001C55 48.5501 55.45 49.0001 56 49.0001C56.55 49.0001 57 48.5501 57 48.0001V47.0501C60.93 47.2801 64.5 48.8501 67.27 51.3101L65.15 53.4301C62.7 51.3001 59.5 50.0001 56 50.0001C48.28 50.0001 42 56.2801 42 64.0001C42 71.7201 48.28 78.0001 56 78.0001C63.72 78.0001 70 71.7201 70 64.0001C70 60.5001 68.7 57.3001 66.57 54.8501L68.69 52.7301C71.15 55.5001 72.72 59.0701 72.95 63.0001ZM62 64.0001C62 67.3101 59.31 70.0001 56 70.0001C52.69 70.0001 50 67.3101 50 64.0001C50 60.6901 52.69 58.0001 56 58.0001C57.29 58.0001 58.49 58.4201 59.47 59.1101L58.02 60.5601C57.42 60.2201 56.74 60.0001 56 60.0001C53.79 60.0001 52 61.7901 52 64.0001C52 66.2101 53.79 68.0001 56 68.0001C58.21 68.0001 60 66.2101 60 64.0001C60 63.2601 59.78 62.5801 59.43 61.9801L60.88 60.5301C61.58 61.5101 62 62.7101 62 64.0001ZM58 64.0001C58 65.1001 57.1 66.0001 56 66.0001C54.9 66.0001 54 65.1001 54 64.0001C54 62.9001 54.9 62.0001 56 62.0001C56.55 62.0001 57.05 62.2201 57.41 62.5801C57.78 62.9501 58 63.4501 58 64.0001ZM60.9 57.6901C59.79 56.8301 58.46 56.2501 57 56.0701V55.0001C57 54.4501 56.55 54.0001 56 54.0001C55.45 54.0001 55 54.4501 55 55.0001V56.0701C51.39 56.5201 48.52 59.3901 48.07 63.0001H47C46.45 63.0001 46 63.4501 46 64.0001C46 64.5501 46.45 65.0001 47 65.0001H48.07C48.52 68.6101 51.39 71.4801 55 71.9301V73.0001C55 73.5501 55.45 74.0001 56 74.0001C56.55 74.0001 57 73.5501 57 73.0001V71.9301C60.61 71.4801 63.48 68.6101 63.93 65.0001H65C65.55 65.0001 66 64.5501 66 64.0001C66 63.4501 65.55 63.0001 65 63.0001H63.93C63.75 61.5401 63.17 60.2101 62.31 59.1001L65.15 56.2601C66.93 58.3501 68 61.0501 68 64.0001C68 70.6201 62.62 76.0001 56 76.0001C49.38 76.0001 44 70.6201 44 64.0001C44 57.3801 49.38 52.0001 56 52.0001C58.95 52.0001 61.65 53.0701 63.74 54.8501L60.9 57.6901ZM78.8 45.4501L76.9 44.5201L80.39 41.0301L82.3 41.9501L78.8 45.4501Z" fill="#403789"/>
</g>
<defs>
<clipPath id="clip0_102_565">
<rect width="50" height="50" fill="white" transform="translate(35 35)"/>
</clipPath>
</defs>
</svg>
