<svg width="120" height="120" viewBox="0 0 120 120" fill="none" xmlns="http://www.w3.org/2000/svg">
<circle cx="60" cy="60" r="60" fill="#F8F8F8"/>
<g clip-path="url(#clip0_102_572)">
<path d="M78.82 44.83C79.57 44.09 80 43.08 80 42C80 39.79 78.21 38 76 38C75.63 38 75.26 38.05 74.91 38.15C74.52 36.35 72.92 35 71 35C69.92 35 68.91 35.43 68.17 36.18C67.15 35.86 66.02 35.98 65.1 36.49C64.35 35.57 63.21 35 62 35C60.79 35 59.65 35.57 58.9 36.49C57.74 35.85 56.26 35.85 55.1 36.49C54.35 35.57 53.21 35 52 35C50.92 35 49.91 35.43 49.17 36.18C48.79 36.06 48.4 36 48 36C45.79 36 44 37.79 44 40C44 40.4 44.06 40.79 44.18 41.17C43.64 41.7 43.27 42.37 43.1 43.1C41.33 43.51 40 45.1 40 47C40 48.56 40.92 49.93 42.26 50.59C42.09 51.03 42 51.51 42 52C42 54.21 43.79 56 46 56C46.49 56 46.96 55.91 47.41 55.74C47.76 56.46 48.31 57.05 49 57.46V60.81C48.5 61.25 48.15 61.83 48.04 62.5C47.9 63.38 48.14 64.27 48.71 64.94C48.8 65.04 48.9 65.13 49 65.21V65.76C49 68.23 48.04 70.55 46.29 72.29C46.04 72.54 45.94 72.91 46.03 73.25C46.12 73.59 46.38 73.86 46.73 73.96L51.74 75.39L46.11 76.42C43.73 76.85 42 78.92 42 81.34V84C42 84.55 42.45 85 43 85C43.55 85 44 84.55 44 84V81.34C44 79.89 45.04 78.65 46.46 78.39L46.86 78.31C51.05 80.1 55.52 81.01 60 81.01C64.48 81.01 68.95 80.1 73.14 78.31L73.54 78.39C74.96 78.65 76 79.89 76 81.34V84C76 84.55 76.45 85 77 85C77.55 85 78 84.55 78 84V81.34C78 78.92 76.27 76.85 73.89 76.42L68.26 75.39L73.27 73.96C73.62 73.86 73.88 73.59 73.97 73.25C74.06 72.91 73.96 72.54 73.71 72.29C71.96 70.55 71 68.23 71 65.76V65.19C71.5 64.75 71.85 64.17 71.96 63.5C72.1 62.62 71.86 61.73 71.29 61.06C71.2 60.96 71.1 60.87 71 60.79V58C73.21 58 75 56.21 75 54C77.21 54 79 52.21 79 50C79 49.29 78.81 48.61 78.45 48C78.81 47.39 79 46.71 79 46C79 45.6 78.94 45.21 78.82 44.83ZM48.78 72.47C50.17 70.6 50.94 68.36 50.99 66H51.06C51.29 68.11 52.28 70.1 53.84 71.57C53.86 71.58 53.88 71.6 53.9 71.61L53.44 73.8L48.78 72.47ZM51.11 62H55C57.94 62 60.77 60.8 62.82 58.73C64.2 60.77 66.49 62 69 62C69.29 62 69.57 62.13 69.76 62.35C69.96 62.58 70.04 62.87 69.99 63.18C69.91 63.64 69.43 64 68.89 64H67.99C67.45 64 67 64.43 66.99 64.97C66.87 68.68 64 71.76 60.46 71.98C58.52 72.11 56.64 71.44 55.21 70.11C53.79 68.77 53 66.96 53 65C53 64.45 52.55 64 52 64H51C50.38 64 49.91 63.43 50.01 62.82C50.09 62.36 50.57 62 51.11 62ZM51 60.01V56C51 53.24 53.24 51 56 51H62C63.65 51 65 52.35 65 54C65 54.55 65.45 55 66 55C67.65 55 69 56.35 69 58V60C66.91 60 65.04 58.84 64.11 56.98L63.89 56.55C63.74 56.24 63.44 56.04 63.09 56C62.75 55.98 62.41 56.12 62.2 56.4C60.51 58.65 57.82 60 55 60H51.11C51.07 60 51.04 60.01 51 60.01ZM69.26 77.61C63.24 79.46 56.76 79.46 50.74 77.61L54.18 76.98C54.58 76.91 54.9 76.6 54.98 76.21L55.68 72.89C56.99 73.61 58.46 74 59.99 74C60.19 74 60.39 73.99 60.59 73.98C61.93 73.9 63.2 73.49 64.32 72.85L65.02 76.21C65.1 76.6 65.42 76.91 65.82 76.98L69.26 77.61ZM71.22 72.47L66.56 73.8L66.08 71.53C67.58 70.1 68.61 68.16 68.91 66C68.94 66 68.97 65.99 69.01 65.99C69.06 68.36 69.83 70.6 71.22 72.47ZM77.07 43.68C76.61 43.97 76.47 44.56 76.73 45.02C76.91 45.34 77 45.66 77 46C77 46.49 76.82 46.96 76.48 47.33C76.13 47.71 76.13 48.29 76.48 48.67C76.82 49.04 77 49.51 77 50C77 51.1 76.1 52 75 52C74.71 52 74.41 51.93 74.13 51.79C73.74 51.59 73.28 51.67 72.97 51.97C72.67 52.28 72.59 52.74 72.79 53.13C72.93 53.41 73 53.71 73 54C73 55.1 72.1 56 71 56C70.84 56 70.69 55.98 70.54 55.94C69.87 54.48 68.54 53.39 66.92 53.08C66.48 50.76 64.44 49 62 49H56C52.6 49 49.76 51.44 49.13 54.65C49.07 54.49 49.03 54.31 49.02 54.13C48.99 53.74 48.74 53.41 48.39 53.27C48.03 53.13 47.62 53.21 47.34 53.47C46.97 53.81 46.49 54 46 54C44.9 54 44 53.1 44 52C44 51.51 44.19 51.03 44.53 50.66C44.79 50.38 44.87 49.97 44.73 49.61C44.59 49.25 44.25 49.01 43.87 48.98C42.82 48.91 42 48.04 42 47C42 45.9 42.9 45 44 45C44.55 45 45 44.55 45 44C45 43.31 45.35 42.68 45.93 42.32C46.39 42.03 46.53 41.44 46.27 40.98C46.09 40.66 46 40.34 46 40C46 38.9 46.9 38 48 38C48.34 38 48.66 38.09 48.98 38.27C49.44 38.54 50.03 38.39 50.32 37.93C50.68 37.35 51.31 37 52 37C52.84 37 53.57 37.52 53.87 38.32C53.99 38.65 54.28 38.89 54.62 38.95C54.96 39.02 55.31 38.9 55.55 38.65C56.3 37.83 57.7 37.83 58.45 38.65C58.69 38.9 59.04 39.02 59.38 38.95C59.72 38.89 60.01 38.65 60.13 38.32C60.43 37.52 61.16 37 62 37C62.84 37 63.57 37.52 63.87 38.32C63.99 38.65 64.28 38.89 64.62 38.95C64.96 39.02 65.31 38.9 65.55 38.65C66.15 37.98 67.14 37.79 67.98 38.27C68.44 38.54 69.03 38.39 69.32 37.93C69.68 37.35 70.31 37 71 37C72.1 37 73 37.9 73 39C73 39.18 72.97 39.36 72.88 39.64C72.75 40.09 72.94 40.56 73.33 40.79C73.73 41.03 74.24 40.96 74.56 40.62C74.95 40.22 75.46 40 76 40C77.1 40 78 40.9 78 42C78 42.69 77.65 43.32 77.07 43.68Z" fill="#403789"/>
<path d="M55.31 42.3001L53.65 42.0401L52.89 40.5401C52.55 39.8701 51.45 39.8701 51.11 40.5401L50.35 42.0401L48.69 42.3001C48.32 42.3601 48.01 42.6301 47.89 42.9801C47.77 43.3301 47.87 43.7301 48.14 44.0001L49.33 45.1901L49.07 46.8501C49.01 47.2201 49.17 47.5901 49.47 47.8101C49.77 48.0301 50.18 48.0601 50.51 47.8901L52.01 47.1301L53.51 47.8901C53.65 47.9601 53.81 48.0001 53.96 48.0001C54.57 48.0001 55.04 47.4401 54.95 46.8401L54.69 45.1801L55.86 44.0001C56.13 43.7301 56.22 43.3401 56.1 42.9801C55.98 42.6201 55.68 42.3601 55.31 42.3001ZM52.9 44.1301C52.67 44.3601 52.57 44.6801 52.62 44.9901L52.66 45.2101L52.46 45.1101C52.32 45.0401 52.16 45.0001 52.01 45.0001C51.86 45.0001 51.7 45.0401 51.56 45.1101L51.36 45.2101L51.38 45.0001C51.43 44.6801 51.33 44.3601 51.1 44.1401L50.94 43.9801L51.16 43.9401C51.48 43.8901 51.75 43.6901 51.89 43.4101L52 43.2001L52.1 43.4001C52.25 43.6801 52.52 43.8801 52.83 43.9301L53.05 43.9701L52.9 44.1301Z" fill="#403789"/>
<path d="M74.3095 45.3001L72.6495 45.0401L71.8895 43.5401C71.5495 42.8701 70.4495 42.8701 70.1095 43.5401L69.3495 45.0401L67.6895 45.3001C67.3195 45.3601 67.0095 45.6201 66.8995 45.9801C66.7895 46.3401 66.8795 46.7301 67.1395 47.0001L68.3295 48.1901L68.0695 49.8501C68.0095 50.2201 68.1695 50.5901 68.4695 50.8101C68.7695 51.0301 69.1795 51.0601 69.5095 50.8901L71.0095 50.1301L72.5095 50.8901C72.6495 50.9601 72.8095 51.0001 72.9595 51.0001C73.5695 51.0001 74.0395 50.4401 73.9495 49.8401L73.6895 48.1801L74.8595 47.0001C75.1295 46.7301 75.2195 46.3401 75.0995 45.9801C74.9795 45.6201 74.6795 45.3601 74.3095 45.3001ZM71.8995 47.1301C71.6695 47.3601 71.5695 47.6801 71.6195 47.9901L71.6595 48.2101L71.4595 48.1101C71.3195 48.0401 71.1595 48.0001 71.0095 48.0001C70.8595 48.0001 70.6995 48.0401 70.5595 48.1101L70.3595 48.2101L70.3795 48.0001C70.4295 47.6801 70.3295 47.3601 70.0995 47.1401L69.9395 46.9801L70.1595 46.9401C70.4795 46.8901 70.7495 46.6901 70.8895 46.4101L70.9895 46.2101L71.0895 46.4101C71.2395 46.6901 71.5095 46.8901 71.8195 46.9401L72.0395 46.9801L71.8995 47.1301Z" fill="#403789"/>
<path d="M65.3103 41.3001L63.6503 41.0401L62.8903 39.5401C62.5503 38.8701 61.4503 38.8701 61.1103 39.5401L60.3503 41.0401L58.6903 41.3001C58.3203 41.3601 58.0103 41.6201 57.9003 41.9801C57.7903 42.3401 57.8703 42.7301 58.1403 43.0001L59.3303 44.1901L59.0703 45.8501C59.0103 46.2201 59.1703 46.5901 59.4703 46.8101C59.7703 47.0301 60.1803 47.0601 60.5103 46.8901L62.0103 46.1301L63.5103 46.8901C63.6503 46.9601 63.8103 47.0001 63.9603 47.0001C64.5703 47.0001 65.0403 46.4401 64.9503 45.8401L64.6903 44.1801L65.8603 43.0001C66.1303 42.7301 66.2203 42.3401 66.1003 41.9801C65.9803 41.6201 65.6803 41.3601 65.3103 41.3001ZM62.9003 43.1301C62.6703 43.3601 62.5703 43.6801 62.6203 44.0001L62.6603 44.2201L62.4603 44.1201C62.3203 44.0501 62.1603 44.0101 62.0103 44.0101C61.8603 44.0101 61.7003 44.0501 61.5603 44.1201L61.3603 44.2201L61.3803 44.0001C61.4303 43.6801 61.3303 43.3601 61.1003 43.1401L60.9403 42.9801L61.1603 42.9401C61.4803 42.8901 61.7503 42.6901 61.8903 42.4101L62.0003 42.2001L62.1003 42.4001C62.2503 42.6801 62.5203 42.8801 62.8303 42.9301L63.0503 42.9701L62.9003 43.1301Z" fill="#403789"/>
</g>
<defs>
<clipPath id="clip0_102_572">
<rect width="40" height="50" fill="white" transform="translate(40 35)"/>
</clipPath>
</defs>
</svg>
